<?xml version="1.0" encoding="UTF-8" standalone="no"?>
<!-- Created with Inkscape (http://www.inkscape.org/) -->

<svg
   xmlns:dc="http://purl.org/dc/elements/1.1/"
   xmlns:cc="http://creativecommons.org/ns#"
   xmlns:rdf="http://www.w3.org/1999/02/22-rdf-syntax-ns#"
   xmlns:svg="http://www.w3.org/2000/svg"
   xmlns="http://www.w3.org/2000/svg"
   xmlns:sodipodi="http://sodipodi.sourceforge.net/DTD/sodipodi-0.dtd"
   xmlns:inkscape="http://www.inkscape.org/namespaces/inkscape"
   width="1496.3527"
   height="751.68573"
   id="svg3064"
   version="1.1"
   inkscape:version="0.92.1 r15371"
   sodipodi:docname="demo.svg"
   inkscape:export-filename="/home/delsart/maison/inkext/demo.png"
   inkscape:export-xdpi="8"
   inkscape:export-ydpi="8">
  <sodipodi:namedview
     id="base"
     pagecolor="#ffffff"
     bordercolor="#666666"
     borderopacity="1.0"
     inkscape:pageopacity="0.97647059"
     inkscape:pageshadow="2"
     inkscape:zoom="0.49497475"
     inkscape:cx="721.26668"
     inkscape:cy="235.47853"
     inkscape:document-units="px"
     inkscape:current-layer="layer1"
     showgrid="false"
     inkscape:window-width="1323"
     inkscape:window-height="703"
     inkscape:window-x="43"
     inkscape:window-y="28"
     inkscape:window-maximized="1"
     fit-margin-top="0"
     fit-margin-left="0"
     fit-margin-right="0"
     fit-margin-bottom="0" />
  <defs
     id="defs3066">
    <marker
       inkscape:stockid="Arrow2Mend"
       orient="auto"
       refY="0.0"
       refX="0.0"
       id="Arrow2Mend"
       style="overflow:visible;"
       inkscape:isstock="true">
      <path
         id="path4945"
         style="fill-rule:evenodd;stroke-width:0.625;stroke-linejoin:round;stroke:#000000;stroke-opacity:1;fill:#000000;fill-opacity:1"
         d="M 8.7185878,4.0337352 L -2.2072895,0.016013256 L 8.7185884,-4.0017078 C 6.9730900,-1.6296469 6.9831476,1.6157441 8.7185878,4.0337352 z "
         transform="scale(0.6) rotate(180) translate(0,0)" />
    </marker>
    <marker
       inkscape:stockid="Arrow1Lend"
       orient="auto"
       refY="0.0"
       refX="0.0"
       id="marker5181"
       style="overflow:visible;"
       inkscape:isstock="true">
      <path
         id="path4921"
         d="M 0.0,0.0 L 5.0,-5.0 L -12.5,0.0 L 5.0,5.0 L 0.0,0.0 z "
         style="fill-rule:evenodd;stroke:#000000;stroke-width:1pt;stroke-opacity:1;fill:#000000;fill-opacity:1"
         transform="scale(0.8) rotate(180) translate(12.5,0)" />
    </marker>
    <marker
       inkscape:stockid="Arrow2Lend"
       orient="auto"
       refY="0"
       refX="0"
       id="Arrow2Lend"
       style="overflow:visible">
      <path
         id="path4088"
         style="fill-rule:evenodd;stroke-width:0.73333335;stroke-linejoin:round"
         d="M -11.403143,-4.732916 1.416553,-0.01878889 -11.403144,4.6953372 c 2.0480517,-2.7832182 2.0362508,-6.5911436 10e-7,-9.4282532 z"
         inkscape:connector-curvature="0" />
    </marker>
    <marker
       inkscape:stockid="Arrow1Lend"
       orient="auto"
       refY="0"
       refX="0"
       id="Arrow1Lend"
       style="overflow:visible">
      <path
         id="path4070"
         d="M -10.666667,0 -14.933333,4.2666667 0,0 -14.933333,-4.2666667 Z"
         style="fill-rule:evenodd;stroke:#000000;stroke-width:0.85333335pt"
         inkscape:connector-curvature="0" />
    </marker>
  </defs>
  <metadata
     id="metadata3069">
    <rdf:RDF>
      <cc:Work
         rdf:about="">
        <dc:format>image/svg+xml</dc:format>
        <dc:type
           rdf:resource="http://purl.org/dc/dcmitype/StillImage" />
        <dc:title />
      </cc:Work>
    </rdf:RDF>
  </metadata>
  <g
     id="layer1"
     inkscape:groupmode="layer"
     inkscape:label="Calque 1"
     transform="translate(209.30973,-68.762525)">
    <path
       style="display:inline;fill:none;stroke:#000000;stroke-width:1.06666672px;stroke-linecap:butt;stroke-linejoin:miter;stroke-opacity:1"
       d="m -171.11527,272.54086 c 0,4.30999 0,8.61997 0,12.92996 0,2.87332 0.37974,5.77185 0,8.61996 -0.34558,2.59183 -1.78521,4.95399 -2.15499,7.54248 -0.71293,4.99045 -0.6755,10.05987 -1.07751,15.08494 -0.31635,3.95448 -0.87938,7.89029 -1.07749,11.85246 -0.16142,3.22845 0.23031,6.47319 0,9.69746 -0.13048,1.82674 -0.71833,3.59166 -1.07749,5.38749 -0.35917,2.87332 -0.9329,5.72789 -1.07751,8.61996 -0.21522,4.30461 0,8.61997 0,12.92996 0,11.13412 0,22.26824 0,33.40237 0,2.51416 0,5.02831 0,7.54247 0,0.71833 0.17423,1.45811 0,2.155 -0.19478,0.77913 -0.82352,1.39308 -1.07749,2.15498 -0.11358,0.34074 0,0.71834 0,1.07751 0,1.07749 0,2.15498 0,3.23249 0,0.35915 0.0871,0.72904 0,1.07749 -0.27547,1.10187 -0.85475,2.11876 -1.07749,3.23249 -0.24304,1.2152 0,3.97738 0,5.38748 0,0.39569 0.0433,4.26662 0,4.30998 -0.25398,0.25396 -0.71834,0 -1.0775,0"
       id="path2990"
       inkscape:connector-curvature="0" />
    <path
       inkscape:connector-curvature="0"
       id="path3370"
       d="m -64.194916,677.04383 c 7.063253,-1.76581 2.577088,0.5147 5.387477,-3.23249 0.609525,-0.81271 1.545472,-1.34229 2.154997,-2.155 0.481867,-0.64248 0.5096,-1.58709 1.077494,-2.15499 0.91569,-0.9157 2.316789,-1.23929 3.23248,-2.15499 0.567893,-0.56789 0.63201,-1.48675 1.077504,-2.15499 0.281749,-0.42263 0.795744,-0.65487 1.077493,-1.07749 0.445493,-0.66824 0.509611,-1.58711 1.077493,-2.155 0.567894,-0.56789 1.587104,-0.5096 2.154998,-1.07749 0.91569,-0.9157 1.239296,-2.31679 2.154986,-3.23249 0.915702,-0.91569 2.237654,-1.32597 3.232491,-2.15499 6.983456,-5.81955 0.873397,-0.80537 4.309984,-5.38749 0.609525,-0.81269 1.436661,-1.43666 2.154997,-2.15499 1.436662,-1.43666 2.873323,-2.87332 4.309984,-4.30998 0.718326,-0.71834 1.545462,-1.34229 2.154987,-2.155 0.963744,-1.28498 1.191253,-3.02499 2.154997,-4.30998 5.075094,-6.76678 -0.963648,3.4019 4.309984,-5.38748 0.413195,-0.68867 0.5096,-1.5871 1.077494,-2.15498 0.567893,-0.5679 1.587104,-0.50962 2.154986,-1.07751 0.253974,-0.25396 -0.160618,-0.75624 0,-1.07749 0.227158,-0.45432 0.850347,-0.62318 1.077504,-1.0775 0.160619,-0.32124 -0.160629,-0.75625 0,-1.07749 0.227158,-0.45431 0.81616,-0.64195 1.077494,-1.0775 0.8264,-1.37734 1.191253,-3.02499 2.154986,-4.30999 2.514166,-3.3522 5.0283201,-4.39977 7.5424747,-7.54247 0.5017067,-0.62713 0.5956267,-1.51249 1.0774934,-2.15499 0.9142933,-1.21905 2.387232,-1.9646 3.2324906,-3.23249 0.4454934,-0.66823 0.5096107,-1.5871 1.077504,-2.15499 0.5678827,-0.56789 1.39307739,-0.82353 2.15498672,-1.0775 0.340736,-0.11358 0.82353068,0.25397 1.07749328,0 7.1833067,-7.18331 -5.3874773,2.51417 3.2324907,-3.23248 0.5507627,-0.36718 2.227712,-3.15978 3.2324907,-2.155 0.2539626,0.25398 -0.1606294,0.75625 0,1.0775 0.796064,1.59214 2.6949019,3.50594 3.2324909,5.38748 0.503115,1.76093 0.633312,3.61077 1.077493,5.38748 0.275467,1.10187 0.765472,2.14041 1.077494,3.23249 0.406826,1.4239 0.527509,2.93502 1.077493,4.30999 0.188651,0.4716 0.916875,0.59562 1.077504,1.07749 0.227147,0.68147 -0.174229,1.45811 0,2.15499 0.17472,0.69891 2.774709,5.77832 3.23248,6.46498 0.28176,0.42262 0.850347,0.62318 1.077504,1.07749 0.321248,0.6425 -0.507936,1.64706 0,2.155 0.253963,0.25396 0.82352,-0.25397 1.077493,0 0.507936,0.50793 -0.321248,1.51249 0,2.15499 0.227158,0.45431 0.850336,0.62318 1.077494,1.0775 0.430997,0.86199 -0.430998,2.37048 0,3.23248 0.227157,0.45431 0.795744,0.65487 1.077493,1.0775 2.373909,0.54262 0.569568,2.21661 1.077504,3.23248 0.227157,0.45432 0.850336,0.62319 1.077493,1.07751 0.507936,1.01587 0.493142,2.25856 1.077494,3.23248 0.522666,0.8711 1.436661,1.43666 2.154997,2.15499 0.359157,0.35917 0.850336,0.62318 1.077493,1.0775 0.160619,0.32125 -0.253973,0.82353 0,1.07749 0.253963,0.25397 0.823531,-0.25396 1.077494,0 4.205184,4.20519 -0.249408,0.57867 1.077493,3.23249 0.227157,0.45432 0.795744,0.65487 1.077504,1.0775 0.445483,0.66823 0.632,1.48676 1.077493,2.15499 0.56351,0.84526 1.700683,1.24637 2.154987,2.15499 0.160629,0.32125 -0.160619,0.75626 0,1.0775 0.227157,0.45431 0.916875,0.59563 1.077504,1.0775 0.227157,0.68147 -0.227157,1.47352 0,2.15498 0.160619,0.48188 0.772736,0.67115 1.077493,1.07751 0.776992,1.03599 1.377995,2.19649 2.154987,3.23248 0.609525,0.8127 1.700683,1.24637 2.154997,2.15499 1.58543,3.17087 -2.496106,-1.41861 1.077494,2.15499 0.718336,0.71834 1.63233,1.28389 2.154997,2.155 0.584352,0.97392 0.65568,2.17794 1.077493,3.23249 1.486251,3.71563 0.963787,0.62267 2.154987,5.38748 0.08715,0.34842 -0.253963,0.82352 0,1.07749 0.253973,0.25397 0.823531,-0.25397 1.077504,0 0.253963,0.25397 -0.160629,0.75627 0,1.07755 0.454315,0.90858 1.700672,1.24629 2.154987,2.15498 0.160629,0.32118 -0.253963,0.82347 0,1.07744 0.03467,0.0352 2.971168,0 3.23249,0 0.359168,0 0.718336,0 1.077494,0 0.359168,0 0.82353,0.25398 1.077504,0 0.253962,-0.25397 -0.16063,-0.75626 0,-1.07744 0.227146,-0.4544 0.850336,-0.62325 1.077493,-1.07754 0.160619,-0.32128 -0.113579,-0.73675 0,-1.07744 0.253963,-0.76192 0.882709,-1.3759 1.077493,-2.15504 0.174219,-0.69689 -0.266784,-1.48805 0,-2.15499 0.48095,-1.20237 1.644875,-2.04221 2.154998,-3.23249 2.071381,-4.83324 0.05824,-3.34889 2.154986,-7.54248 0.579136,-1.15827 1.575851,-2.07421 2.154998,-3.23249 0.507936,-1.01587 0.569557,-2.2166 1.077493,-3.23249 1.328843,-2.65768 3.346475,-4.42396 5.387477,-6.46497 0.841622,-0.84162 2.30272,-2.61264 3.232491,-3.23249 0.668235,-0.44549 1.486752,-0.632 2.154987,-1.07749 0.490592,-0.32706 4.135872,-3.96174 4.309984,-4.30999 0.507936,-1.01587 0.396032,-2.32386 1.077504,-3.23249 0.481866,-0.64249 1.51249,-0.59562 2.154986,-1.07749 0.812704,-0.60952 1.436662,-1.43666 2.154998,-2.155 0.359157,-0.35915 0.772725,-0.67114 1.077493,-1.07749 0.776992,-1.03599 1.377995,-2.1965 2.154987,-3.23249 0.304768,-0.40635 0.81617,-0.64194 1.077504,-1.07749 0.8264,-1.37734 1.436661,-2.87333 2.154986,-4.30999 0.718336,-1.43666 1.591008,-2.80601 2.154998,-4.30998 0.519968,-1.38659 0.415221,-2.98545 1.077493,-4.30999 0.454315,-0.90863 1.545472,-1.34229 2.154987,-2.15499 2.646894,-0.3842 0.447484,-2.28746 1.077504,-3.23248 0.5635,-0.84526 1.54546,-1.3423 2.15499,-2.155 0.96374,-1.28499 1.26401,-2.97352 2.15499,-4.30998 0.28175,-0.42263 0.85034,-0.62318 1.0775,-1.0775 0.60992,-1.21985 -0.91333,-1.65556 1.07749,-4.30998 0.60953,-0.81271 1.54548,-1.3423 2.155,-2.155 0.48187,-0.64248 0.71833,-1.43666 1.0775,-2.15499 0.71833,-1.07749 1.34601,-2.22127 2.15499,-3.23249 0.95192,-1.1899 2.38722,-1.96459 3.23248,-3.23249 0.4455,-0.66823 0.63201,-1.48675 1.07751,-2.15498 0.5635,-0.84526 1.70067,-1.24637 2.15498,-2.155 0.16063,-0.32125 -0.25396,-0.82352 0,-1.07749 0.25398,-0.25397 0.82353,0.25397 1.0775,0 0.25397,-0.25397 -0.16062,-0.75625 0,-1.0775 0.22715,-0.45431 0.85034,-0.62319 1.0775,-1.07749 0.16062,-0.32125 -0.25397,-0.82353 0,-1.07751 0.25396,-0.25396 0.82352,0.25398 1.07749,0 0.25397,-0.25396 -0.25397,-0.82352 0,-1.07749 1.43667,-1.43666 1.0775,1.79583 1.0775,-1.07749 0,-2.87332 -0.35917,0.35917 1.07749,-1.0775 0.10776,-0.10775 -0.50283,-3.73532 1.0775,-2.15499 0.001,0.001 -0.002,3.2276 0,3.23249 0.16062,0.48186 0.95431,0.58472 1.0775,1.07749 0.26133,1.04532 -0.17714,2.16965 0,3.23249 1.5764,9.45844 0.39635,-1.64706 2.15498,5.38748 0.17423,0.69688 -0.14087,1.45061 0,2.155 0.22276,1.11371 0.93662,2.10547 1.07751,3.23248 0.22274,1.78196 -0.22275,3.60552 0,5.38748 0.14087,1.12701 0.71832,2.15499 1.07749,3.23248 0.35917,2.51417 0.88271,5.01028 1.0775,7.54248 0.16528,2.14865 -0.30476,4.33165 0,6.46498 0.52569,3.67989 2.85626,9.86904 3.23249,14.00745 0.26013,2.86152 0,5.74664 0,8.61996 0,1.0775 -0.21132,2.17592 0,3.23249 0.1575,0.78752 0.91999,1.36747 1.07749,2.15499 0.21132,1.05658 -0.15238,2.16583 0,3.23249 0.20943,1.466 0.78707,2.85787 1.07749,4.30999 0.42846,2.14229 0.64905,4.32268 1.07751,6.46498 0.29042,1.45211 0.89381,2.84054 1.07749,4.30998 0.31184,2.49474 -0.41332,5.06252 0,7.54247 0.37344,2.24066 1.7095,4.23753 2.15499,6.46498 0.547,2.73509 -0.54701,1.57498 0,4.31002 0.22275,1.11371 0.89078,2.11211 1.0775,3.23243 0.17713,1.06283 -0.21132,2.17589 0,3.23253 0.1575,0.78752 0.88271,1.37579 1.07749,2.15499 0.26134,1.04533 0,2.15499 0,3.23243"
       style="display:inline;fill:none;stroke:#000000;stroke-width:1.06666672px;stroke-linecap:butt;stroke-linejoin:miter;stroke-opacity:1" />
    <path
       style="display:inline;fill:none;stroke:#000000;stroke-width:1.06666672px;stroke-linecap:butt;stroke-linejoin:miter;stroke-opacity:1"
       d="m 195.48162,368.87996 c 0,7.90164 0,15.80327 0,23.70491 0,1.79583 0.1787,3.60057 0,5.38748 -0.18223,1.82231 -0.81849,3.5745 -1.07749,5.38748 -0.10155,0.71111 0.11809,1.44644 0,2.155 -1.25171,7.5103 -1.0775,1.61476 -1.0775,6.46497 0,1.0775 0,2.15499 0,3.23249 0,0.71833 0.14088,1.45061 0,2.155 -0.22275,1.11371 -0.85475,2.11876 -1.0775,3.23248 -0.28175,1.40876 0,2.87332 0,4.30998 0,3.95083 0,7.90164 0,11.85246 0,11.13412 0,22.26825 0,33.40238 0,2.51415 0,5.02832 0,7.54247 0,0.35917 0,0.71833 0,1.07749 0,0.35917 -0.25396,0.82354 0,1.0775 0.25397,0.25397 0.71834,0 1.0775,0 0.35917,0 0.71833,0 1.0775,0 4.66915,0 9.3383,0 14.00744,0 33.40239,0 66.80477,0 100.20715,0 7.90163,0 15.80327,0 23.70492,0 1.18033,0 4.25558,0.1088 4.30998,0 0.32124,-0.6425 0,-1.43666 0,-2.15499 0,-1.07749 0,-2.155 0,-3.23249 0,-5.38748 0,-10.77495 0,-16.16244 0,-30.88822 0,-61.77644 0,-92.66466 0,-3.23248 0,-6.46497 0,-9.69746 0,-0.35917 0,-0.71833 0,-1.0775 0,-0.35917 0.25396,-0.82353 0,-1.07749 -0.25397,-0.25397 -0.71833,0 -1.0775,0 -0.35917,0 -0.71833,0 -1.0775,0 -4.30998,0 -8.61996,0 -12.92995,0 -6.46498,0 -12.92995,0 -19.39493,0 -2.15499,0 -4.30999,0 -6.46497,0 -1.0775,0 -2.16966,0.17713 -3.23249,0 -1.12033,-0.18672 -2.10812,-0.91688 -3.23249,-1.07751 -1.42222,-0.20316 -2.89287,0.2362 -4.30999,0 -0.79219,-0.13203 -1.36279,-0.94546 -2.15498,-1.07749 -1.41712,-0.23618 -2.87333,0 -4.30999,0 -0.71833,0 -1.45061,0.14088 -2.155,0 -1.11371,-0.22274 -2.11216,-0.89077 -3.23248,-1.07749 -1.06283,-0.17714 -2.16582,0.15238 -3.23249,0 -1.46599,-0.20943 -2.84399,-0.86808 -4.30998,-1.0775 -1.06667,-0.15238 -2.155,0 -3.23249,0 -1.43666,0 -2.87332,0 -4.30998,0 -4.66916,0 -9.33831,0 -14.00745,0 -7.18331,0 -14.36662,0 -21.54993,0 -2.155,0 -4.30998,0 -6.46498,0 -0.48526,0 -2.90457,0.16396 -3.23249,0 -0.45432,-0.22715 -0.62318,-0.85034 -1.0775,-1.0775 -0.28331,-0.14165 -3.74653,0 -4.30998,0 -3.23249,0 -6.46497,0 -9.69746,0 -0.35917,0 -0.71834,0 -1.07751,0 -0.35915,0 -0.82352,-0.25396 -1.07749,0 -0.0434,0.0433 0,3.91429 0,4.30998 0,0.35917 0.35917,1.07751 0,1.07751 -0.35916,0 0,-0.71834 0,-1.07751"
       id="path3167"
       inkscape:connector-curvature="0" />
    <path
       inkscape:connector-curvature="0"
       id="path3343"
       d="m -208.77639,492.87614 c 2.49853,-1.68301 5.17717,-2.82723 7.61904,-4.57143 1.03331,-0.73808 1.9763,-1.60396 3.04762,-2.28571 1.72745,-1.09929 3.52666,-2.08407 5.33334,-3.04762 2.0043,-1.06897 4.1373,-1.89589 6.09523,-3.04763 13.15411,-7.7377 0.21826,-1.63293 15.23809,-9.14284 2.74474,-1.37238 5.63622,-2.43717 8.38096,-3.80953 2.84625,-1.42313 5.46822,-3.28983 8.38095,-4.57143 3.45577,-1.52055 7.21656,-2.27614 10.66666,-3.80953 3.42661,-1.52293 6.62685,-3.51227 9.90476,-5.33333 0.0302,-0.0168 21.32664,-12.18712 21.33333,-12.19048 7.93423,-3.9671 16.398955,-6.79659 24.38096,-10.66666 4.395744,-2.13128 8.582944,-4.67243 12.952374,-6.85714 10.994154,-5.49708 22.529664,-9.74103 33.523818,-15.2381 3.35392,-1.67696 6.503659,-3.75425 9.904758,-5.33333 3.72144,-1.72782 7.663861,-2.94005 11.428576,-4.57143 3.857333,-1.67151 7.544074,-3.72596 11.4285647,-5.33334 13.9666347,-5.77929 7.17216,-1.72336 20.5714353,-7.61904 6.550826,-2.88236 11.230528,-5.84639 17.523808,-9.14286 2.515274,-1.31752 5.002101,-2.70765 7.61904,-3.80952 6.873717,-2.8942 6.401952,-1.1235 12.190485,-5.33333 5.220821,-5.22084 0.679477,-1.32198 6.095232,-4.57143 0.790347,-0.47421 1.488736,-1.88723 2.285717,-2.28572 0.227158,-0.11357 0.582315,0.17959 0.761899,0 0.179584,-0.17958 -0.179584,-0.58232 0,-0.7619 0.179584,-0.17959 0.582325,-0.17959 0.761909,0 0.179584,0.17958 -0.08032,0.52097 0,0.7619 0.179584,0.53875 0.507936,1.01588 0.76191,1.52381 1.121066,2.24215 0.582314,0.98506 1.523808,3.80953 0.253962,0.7619 0.64832,1.49066 0.761898,2.28572 0.14367,1.00565 -0.279082,2.07082 0,3.04761 0.251563,0.88046 1.202294,1.42832 1.523808,2.28572 0.45471,1.21253 0.44783,2.55319 0.76191,3.80951 0.448426,1.79372 1.015872,3.55557 1.523808,5.33334 0.507936,1.77778 0.837141,3.61666 1.523808,5.33333 1.687274,4.21819 4.567221,7.91203 6.095242,12.19047 0.519584,1.45484 0.307595,3.09493 0.761899,4.57144 1.137621,3.69727 3.270368,7.0237 4.571435,10.66667 0.621856,1.7412 1.047413,3.54684 1.523808,5.33333 0.539616,2.02356 1.113088,4.04163 1.523808,6.09523 0.352192,1.76096 0.466677,3.56194 0.761909,5.33333 0.466795,2.80083 0.966944,5.59666 1.523808,8.38096 0.4592,2.296 1.04144,4.5659 1.523808,6.85715 0.533557,2.53442 0.990251,5.08461 1.523808,7.61905 0.482368,2.29124 1.13888,4.54752 1.523808,6.85714 0.37808,2.26849 0.383829,4.58865 0.761909,6.85714 0.384928,2.30961 1.015872,4.57142 1.523808,6.85714 2.83968,12.77859 0.158208,1.35517 3.047616,12.19048 1.568523,3.27478 1.422912,7.21545 2.285718,10.66666 1.237952,4.9518 2.084608,4.60822 3.047616,9.90477 0.181728,0.99948 -0.321248,2.08387 0,3.04762 0.227157,0.68147 1.015874,1.01587 1.523804,1.5238 0,0.76191 -0.14941,1.53861 0,2.28572 0.11139,0.55687 0.58233,0.98506 0.76191,1.52381 0.16062,0.48187 -0.35916,1.16464 0,1.52381 0.17959,0.17958 0.58233,-0.17959 0.7619,0 0.17959,0.17958 0.17959,0.58232 0,0.76191 -0.40156,0.40155 -1.01587,0.50793 -1.52381,0.7619 -0.50793,0.25397 -0.985052,0.58232 -1.523804,0.7619 -1.986806,0.66227 -4.108427,0.86154 -6.095232,1.52381 -1.297483,0.43249 -2.512054,1.09132 -3.809526,1.52381 -4.76689,1.58896 -7.802272,2.06665 -12.952384,3.04762 -13.598656,2.59022 -3.206176,0.37386 -15.23809,3.04762 -2.285718,0.50794 -4.601099,0.89712 -6.857142,1.52381 -2.321461,0.64484 -4.499477,1.78936 -6.857152,2.28571 -2.4976,0.52581 -5.094933,0.38329 -7.61904,0.76191 -10.04225,1.50633 -5.319317,1.32982 -15.238101,3.80952 -0.07477,0.0187 -15.2006083,3.03638 -15.2380909,3.04762 -8.39989334,2.51997 -6.275552,2.96313 -13.7142827,6.09524 -2.73968,1.15355 -5.5463144,2.15247 -8.3809594,3.04762 -1.997067,0.63065 -4.096288,0.89913 -6.095232,1.52381 -2.071136,0.64723 -3.998603,1.72661 -6.095243,2.28571 -1.735189,0.46272 -3.616917,0.23377 -5.333333,0.7619 -2.448128,0.75328 -7.845174,4.38276 -9.904758,5.33333 -1.713152,0.79069 -8.33617,2.59946 -9.904768,3.04763 -1.77777,0.50794 -3.505909,1.24267 -5.333333,1.52381 -1.506091,0.2317 -3.068352,-0.25052 -4.571424,0 -3.201952,0.53365 -5.350912,2.1386 -8.380949,3.04762 -6.659862,1.99796 -0.9992,-0.79002 -8.38096,2.28571 -1.572619,0.65526 -2.989611,1.65298 -4.571424,2.28572 -0.972246,0.3889 -2.054219,0.43076 -3.047616,0.7619 -1.297483,0.43249 -2.499542,1.13081 -3.809526,1.52381 -1.240373,0.37211 -2.580992,0.35239 -3.809525,0.76191 -2.775605,0.92519 -2.670411,1.84188 -5.333333,2.28571 -0.751542,0.12525 -1.553131,-0.20931 -2.285718,0 -1.092074,0.31202 -2.031744,1.01588 -3.047614,1.52381 -0.50794,0.25396 -0.97288,0.62417 -1.52381,0.7619 -0.49278,0.1232 -1.03104,-0.12319 -1.52381,0 -1.10187,0.27547 -1.94574,1.24834 -3.04762,1.52381 -0.49277,0.1232 -1.03104,-0.12319 -1.52381,0 -0.88631,0.22159 -3.39985,1.97846 -3.80952,2.28572 -0.28733,0.21549 -0.41346,0.67479 -0.7619,0.7619 -0.73916,0.18479 -1.5386,-0.14942 -2.28572,0 -1.379,-0.45922 -1.41701,1.23424 -2.28572,1.52381 -0.48186,0.16062 -1.06949,-0.22715 -1.5238,0 -0.6425,0.32125 -0.88132,1.20256 -1.52381,1.52381 -0.45432,0.22716 -1.02574,-0.0996 -1.52381,0 -3.19178,0.63836 -1.57488,0.78745 -4.57144,2.28572 -0.22714,0.11358 -0.53474,-0.11358 -0.76189,0 -0.6425,0.32125 -0.88132,1.20256 -1.52381,1.52381 -0.22716,0.11357 -0.58233,-0.17959 -0.76191,0 -0.17959,0.17958 0.17958,0.58232 0,0.76189 -0.17959,0.17959 -0.58233,-0.17957 -0.7619,0 -0.17958,0.17959 0.17957,0.58233 0,0.76191 -0.35917,0.35917 -1.0695,-0.22715 -1.52382,0 -2.52691,2.52693 0.71834,-0.35916 -1.52381,0.76191 -0.32124,0.16062 -0.44065,0.60128 -0.7619,0.7619 -0.22715,0.11358 -0.50793,0 -0.7619,0 -0.50794,0.25398 -1.0513,0.4469 -1.52381,0.76191 -0.59769,0.39845 -0.84234,1.29665 -1.52381,1.52381 -0.48187,0.16062 -1.03104,-0.12319 -1.52381,0 -1.37901,-0.45922 -1.41701,1.23424 -2.28572,1.52381 -0.48186,0.16062 -1.03104,-0.12319 -1.5238,0 -0.55094,0.13773 -0.97288,0.62417 -1.52381,0.76191 -0.3712,0.0928 -2.64475,-0.20144 -3.04763,0 -0.32124,0.16062 -0.44065,0.60128 -0.7619,0.7619 -0.45431,0.22715 -1.06949,-0.22716 -1.52381,0 -0.32124,0.16062 -0.44066,0.60128 -0.7619,0.7619 -0.60953,0.30476 -1.6762,-0.30476 -2.28572,0 -0.32124,0.16062 -0.44065,0.60128 -0.7619,0.7619 -0.45432,0.22716 -1.06949,-0.22715 -1.52381,0 -0.32125,0.16063 -0.44066,0.60128 -0.76191,0.76191 -0.45431,0.22716 -1.06949,-0.22715 -1.52381,0 -0.32124,0.16062 -0.44066,0.60128 -0.76191,0.7619 -0.30208,0.15105 -2.12995,-0.15575 -2.2857,0 -0.17959,0.17959 0.17958,0.58233 0,0.76191 -0.38096,0.38095 -1.90477,-0.38095 -2.28572,0 -0.17958,0.17958 0.17958,0.58233 0,0.76191 -0.17958,0.17957 -0.50794,0 -0.76191,0 -0.25396,0 -0.50793,0 -0.7619,0 -0.25397,0 -0.58232,-0.17958 -0.76191,0 -0.17958,0.17957 0.17959,0.94148 0,0.7619 -1.08092,-1.08093 -0.7619,-2.48104 -0.7619,-3.80953 0,-2.79365 0,-5.58729 0,-8.38095 0,-0.76191 0.24093,-1.56291 0,-2.28571 -0.28956,-0.86871 -1.18373,-1.43551 -1.5238,-2.28571 -0.18865,-0.47162 0,-1.01588 0,-1.52382 0,-1.26983 0,-2.53968 0,-3.80951 0,-0.50795 0.0996,-1.02574 0,-1.52382 -0.31501,-1.57504 -1.25976,-2.98704 -1.52382,-4.57143 -0.12525,-0.75154 0.12526,-1.53417 0,-2.28571 -0.33245,-1.99469 -1.55783,-3.51362 -2.28571,-5.33334 -0.29827,-0.74567 -0.46364,-1.54003 -0.76191,-2.2857 -0.21091,-0.52728 -0.65053,-0.96696 -0.7619,-1.52382 0,-5.81229 0.34073,0.60103 -0.76191,-3.80952 -0.24639,-0.98554 0.32125,-2.08388 0,-3.04762 -0.11357,-0.34074 -0.64833,-0.42117 -0.76191,-0.7619 -0.16061,-0.48188 0.1232,-1.03104 0,-1.52381 -0.13772,-0.55094 -0.62417,-0.97287 -0.76189,-1.52382 -0.12319,-0.49277 0.12319,-1.03103 0,-1.52381 -0.13774,-0.55093 -0.62417,-0.97287 -0.76191,-1.5238 -0.29879,-1.19515 0.29879,-2.61438 0,-3.80953 -0.13773,-0.55093 -0.62417,-0.97287 -0.7619,-1.52381 -0.25044,-1.00176 0.31541,-2.86327 0,-3.80952 -0.11358,-0.34074 -0.64833,-0.42117 -0.76191,-0.7619 -0.22857,-0.68572 0.22857,-1.6 0,-2.28572 -0.17959,-0.53875 -0.58232,-0.98507 -0.7619,-1.52381 -0.22858,-0.68571 0.22857,-1.6 0,-2.28571 -0.11358,-0.34074 -0.64833,-0.42118 -0.76191,-0.7619 -0.16062,-0.48188 0.16063,-1.04194 0,-1.52382 -0.11358,-0.34073 -0.60128,-0.44065 -0.76191,-0.7619 -0.11357,-0.22716 0.11358,-0.53475 0,-0.76191 -0.16062,-0.32125 -0.60128,-0.44065 -0.7619,-0.7619 -0.11358,-0.22716 0.11358,-0.53475 0,-0.76191 -0.20345,-0.40692 -1.88459,-1.8846 -2.28571,-2.28572 -0.7619,-0.76189 -1.52381,-1.5238 -2.28571,-2.2857 -0.50795,-0.50794 -0.92612,-1.12536 -1.52382,-1.52381 -0.47251,-0.31502 -1.12225,-0.36035 -1.52381,-0.76191 -1.5764,-1.5764 2.40896,0.0616 -0.7619,-1.52381 -0.22715,-0.11358 -0.58232,0.17959 -0.76191,0 -1.5764,-1.5764 2.40896,0.0617 -0.76189,-1.52381 -0.22716,-0.11357 -0.58233,0.17959 -0.76191,0 -0.17959,-0.17958 0.11357,-0.53475 0,-0.7619 -0.16063,-0.32125 -0.60128,-0.44066 -0.76191,-0.7619 -0.11358,-0.22716 0.17958,-0.58233 0,-0.76191 -0.17959,-0.17959 -0.58232,0.17958 -0.7619,0 -0.17959,-0.17959 0.11358,-0.53475 0,-0.76191 -0.16063,-0.32124 -0.60128,-0.44065 -0.76191,-0.7619 -0.11358,-0.22716 0.17958,-0.58233 0,-0.76191 -1.57641,-1.57641 0.0616,2.40896 -1.52381,-0.7619 -0.22716,-0.45431 0.22716,-1.0695 0,-1.52381 -0.16062,-0.32124 -0.56268,-0.46306 -0.7619,-0.76191 -0.25397,-0.50793 -0.50794,-1.01587 -0.76191,-1.5238 0,-0.25398 0.11358,-0.53476 0,-0.76191 -0.16063,-0.32125 -0.60128,-0.44065 -0.76191,-0.7619 -0.22715,-0.45432 0.22716,-1.06951 0,-1.52381 -0.32124,-0.6425 -1.29665,-0.84235 -1.5238,-1.52382 -0.16062,-0.48187 0.16062,-1.04193 0,-1.52381 -0.22716,-0.68146 -1.20256,-0.88131 -1.52381,-1.5238 -0.11358,-0.22716 0.11358,-0.53476 0,-0.7619 -0.16062,-0.32125 -0.60128,-0.44066 -0.7619,-0.76191 -0.11358,-0.22716 0.11357,-0.53475 0,-0.76191 -2.52692,-2.52691 0.35916,0.71833 -0.76191,-1.52381 -0.16063,-0.32125 -0.60128,-0.44065 -0.76191,-0.7619 -0.23943,-0.47888 0.23945,-2.56875 0,-3.04763 -0.16062,-0.32123 -0.60128,-0.44065 -0.7619,-0.76189 -0.11593,-0.23188 0,-1.94259 0,-2.28572"
       style="fill:none;stroke:#000000;stroke-width:1.06666672px;stroke-linecap:butt;stroke-linejoin:miter;stroke-opacity:1" />
    <text
       xml:space="preserve"
       style="font-style:normal;font-variant:normal;font-weight:normal;font-stretch:normal;font-size:12.80000019px;line-height:0%;font-family:'DejaVu Sans';-inkscape-font-specification:'DejaVu Sans';letter-spacing:0px;word-spacing:0px;fill:#000000;fill-opacity:1;stroke:none;stroke-width:1.06666672"
       x="228.57143"
       y="214.32918"
       id="text3154"><tspan
         sodipodi:role="line"
         id="tspan3156"
         x="228.57143"
         y="214.32918"
         style="font-size:29.86666679px;line-height:1.25;stroke-width:1.06666672"> </tspan></text>
    <text
       xml:space="preserve"
       style="font-style:normal;font-variant:normal;font-weight:normal;font-stretch:normal;font-size:37.33333206px;line-height:125%;font-family:sans-serif;-inkscape-font-specification:'sans-serif, Normal';font-variant-ligatures:normal;font-variant-caps:normal;font-variant-numeric:normal;font-feature-settings:normal;text-align:start;letter-spacing:0px;word-spacing:0px;writing-mode:lr-tb;text-anchor:start;fill:#000000;fill-opacity:1;stroke:none;stroke-width:1px;stroke-linecap:butt;stroke-linejoin:miter;stroke-opacity:1"
       x="710.69025"
       y="129.01967"
       id="text9739"><tspan
         sodipodi:role="line"
         id="tspan9745"
         x="710.69025"
         y="129.01967">Choose &quot;shape  recogniton&quot; </tspan><tspan
         sodipodi:role="line"
         id="tspan9747"
         x="710.69025"
         y="175.68634">extension.  Results in </tspan></text>
    <text
       xml:space="preserve"
       style="font-style:normal;font-variant:normal;font-weight:normal;font-stretch:normal;font-size:37.33333206px;line-height:125%;font-family:'DejaVu Sans';-inkscape-font-specification:'DejaVu Sans, Normal';font-variant-ligatures:normal;font-variant-caps:normal;font-variant-numeric:normal;font-feature-settings:normal;text-align:start;letter-spacing:0px;word-spacing:0px;writing-mode:lr-tb;text-anchor:start;fill:#000000;fill-opacity:1;stroke:none;stroke-width:1px;stroke-linecap:butt;stroke-linejoin:miter;stroke-opacity:1"
       x="-66.452591"
       y="126.16255"
       id="text9769"><tspan
         sodipodi:role="line"
         id="tspan9767"
         x="-66.452591"
         y="126.16255">Select</tspan><tspan
         sodipodi:role="line"
         x="-66.452591"
         y="172.82922"
         id="tspan9771">items bellow</tspan></text>
    <path
       inkscape:connector-curvature="0"
       id="path8389"
       d="m 174.97598,624.73396 c 10.47619,0 20.95239,0 31.42858,0 4.7619,0 9.53114,0.26415 14.28571,0 3.83326,-0.21294 7.5979,-1.17318 11.42857,-1.42857 3.32595,-0.22173 6.67649,0.25566 10,0 2.88802,-0.22215 5.68677,-1.16633 8.57143,-1.42857 2.37117,-0.21556 4.76191,0 7.14286,0 3.80952,0 7.61905,0 11.42857,0 2.38095,0 4.7619,0 7.14286,0 0.95238,0 1.92325,-0.18678 2.85714,0 1.4766,0.29532 2.80911,1.13325 4.28571,1.42857 0.93389,0.18678 1.91772,-0.15657 2.85715,0 3.58758,0.59793 6.60321,1.72488 10,2.85716 1.42857,0.47618 2.85714,0.95237 4.28571,1.42857 1.42857,0.47619 2.93884,0.75513 4.28571,1.42857 0.60234,0.30117 0.82624,1.1274 1.42858,1.42857 0.42591,0.21296 0.95238,0 1.42857,0 2.38095,0 4.7619,0 7.14285,0 3.80953,0 7.61905,0 11.42858,0 1.90476,0 3.80952,0 5.71428,0 1.42857,0 2.8715,0.20203 4.28572,0 1.94365,-0.27766 3.77761,-1.10579 5.71428,-1.42857 0.93942,-0.15657 1.90476,0 2.85714,0 1.90477,0 3.80953,0 5.71429,0 6.66667,0 13.33333,0 20,0 6.66667,0 13.33333,0 20,0 0.34647,0 4.23977,0.0459 4.28571,0 0.33672,-0.33672 -0.33671,-1.09186 0,-1.42857 0.33672,-0.33672 0.95239,0 1.42858,0 2.38095,0 4.7619,0 7.14285,0"
       style="color:#000000;clip-rule:nonzero;display:inline;overflow:visible;visibility:visible;opacity:1;isolation:auto;mix-blend-mode:normal;color-interpolation:sRGB;color-interpolation-filters:linearRGB;solid-color:#000000;solid-opacity:1;vector-effect:none;fill:none;fill-opacity:1;fill-rule:evenodd;stroke:#000000;stroke-width:1.06666672px;stroke-linecap:butt;stroke-linejoin:miter;stroke-miterlimit:4;stroke-dasharray:none;stroke-dashoffset:0;stroke-opacity:1;color-rendering:auto;image-rendering:auto;shape-rendering:auto;text-rendering:auto;enable-background:accumulate;font-variant-east_asian:normal" />
  </g>
  <path
     style="color:#000000;clip-rule:nonzero;display:inline;overflow:visible;visibility:visible;opacity:1;isolation:auto;mix-blend-mode:normal;color-interpolation:sRGB;color-interpolation-filters:linearRGB;solid-color:#000000;solid-opacity:1;vector-effect:none;fill:none;fill-opacity:1;fill-rule:evenodd;stroke:#000000;stroke-width:1.06666672px;stroke-linecap:butt;stroke-linejoin:miter;stroke-miterlimit:4;stroke-dasharray:none;stroke-dashoffset:0;stroke-opacity:1;color-rendering:auto;image-rendering:auto;shape-rendering:auto;text-rendering:auto;enable-background:accumulate"
     d="m 474.28571,508.82859 c -1.90476,1.42857 -3.85507,2.79834 -5.71428,4.28571 -2.335,1.868 -0.58351,1.62308 -4.28572,2.85714 -0.45175,0.15059 -1.09185,-0.33671 -1.42857,0 -0.75292,0.75293 -0.83793,1.97118 -1.42857,2.85715 -0.37355,0.56033 -1.05502,0.86824 -1.42857,1.42857 -1.18128,1.77192 -1.67586,3.94236 -2.85714,5.71428 -2.72525,4.08788 -0.26765,-2.18801 -2.85715,4.28572 -0.55925,1.39814 -0.86931,2.88757 -1.42857,4.28571 -0.39545,0.98864 -1.03311,1.86851 -1.42857,2.85715 -0.55926,1.39814 -0.75513,2.93884 -1.42857,4.28571 -0.76783,1.53567 -2.08931,2.75005 -2.85714,4.28571 -0.21296,0.42592 0.11549,0.9666 0,1.42858 -0.36522,1.46088 -1.06335,2.82482 -1.42857,4.28571 -0.1155,0.46197 0,0.95238 0,1.42857 v 2.85714 5.71429 2.85714 c 0,0.95238 -0.30117,1.95364 0,2.85715 0.21295,0.63887 1.1274,0.82623 1.42857,1.42857 0.21296,0.42591 -0.21296,1.00265 0,1.42857 0.30117,0.60234 1.21561,0.78969 1.42857,1.42857 0.30117,0.90351 -0.30117,1.95363 0,2.85714 0.21296,0.63888 0.95238,0.95238 1.42857,1.42857 0.95238,0.95239 2.04902,1.77965 2.85714,2.85715 0.63888,0.85183 0.83793,1.97118 1.42857,2.85714 0.37356,0.56033 0.95239,0.95238 1.42858,1.42857 l 2.85714,2.85714 c 1.42857,1.42858 2.85714,2.85715 4.28571,4.28572 0.95238,0.95238 1.77965,2.04902 2.85715,2.85714 0.85183,0.63888 1.97118,0.83793 2.85714,1.42857 0.56033,0.37356 0.86824,1.05502 1.42857,1.42857 0.71942,3.14738 2.93884,0.75514 4.28571,1.42858 0.60234,0.30116 0.82624,1.1274 1.42858,1.42857 0.42591,0.21296 0.95238,0 1.42857,0 h 4.28571 c 0.47619,0 0.97682,-0.15059 1.42857,0 1.01016,0.33671 1.82414,1.17032 2.85715,1.42857 0.92394,0.23098 1.90476,0 2.85714,0 H 490 h 11.42857 11.42857 2.85715 c 0.95238,0 1.95363,0.30117 2.85714,0 0.63888,-0.21296 0.86824,-1.05502 1.42857,-1.42857 0.88596,-0.59064 1.84699,-1.09186 2.85714,-1.42857 0.45176,-0.15059 1.09186,0.33671 1.42857,0 0.33672,-0.33672 -0.33671,-1.09186 0,-1.42858 0.33672,-0.33671 1.00266,0.21296 1.42858,0 0.60233,-0.30117 0.95238,-0.95238 1.42857,-1.42857 0.47619,-0.47619 1.1274,-0.82623 1.42857,-1.42857 0.21296,-0.42592 -0.21296,-1.00265 0,-1.42857 3.269,-6.53801 -0.5921,6.06202 2.85714,-4.28571 0.30117,-0.90351 -0.42592,-2.00531 0,-2.85715 0.30117,-0.60234 1.21561,-0.78969 1.42857,-1.42857 0.30117,-0.90351 -0.30117,-1.95363 0,-2.85714 0.547,-1.64098 3.41061,-1.98204 4.28572,-2.85714 0.75292,-0.75293 0.83793,-1.97118 1.42857,-2.85715 0.37355,-0.56033 1.1274,-0.82623 1.42857,-1.42857 0.21296,-0.42592 -0.21296,-1.00265 0,-1.42857 0.30117,-0.60234 1.1274,-0.82623 1.42857,-1.42857 0.42592,-0.85184 -0.42592,-2.00531 0,-2.85714 0.30117,-0.60234 1.1274,-0.82624 1.42857,-1.42858 0.21296,-0.42591 0,-0.95238 0,-1.42857 v -4.28571 c 0,-0.95238 -0.23098,-1.9332 0,-2.85714 0.25825,-1.03301 1.09186,-1.84699 1.42857,-2.85715 0.15059,-0.45175 0,-0.95238 0,-1.42857 v -2.85714 -8.57143 c 0,-0.45193 0.0938,-6.86146 0,-7.14286 -0.21295,-0.63887 -1.1274,-0.82623 -1.42857,-1.42857 -0.42591,-0.85183 0.42592,-2.00531 0,-2.85714 -0.30117,-0.60234 -1.1274,-0.82623 -1.42857,-1.42857 -0.21296,-0.42592 0.21296,-1.00266 0,-1.42857 -0.30117,-0.60234 -1.1274,-0.82624 -1.42857,-1.42858 -0.21296,-0.42591 0.21296,-1.00265 0,-1.42857 -0.30117,-0.60234 -1.1274,-0.82623 -1.42857,-1.42857 -0.21296,-0.42592 0.33672,-1.09185 0,-1.42857 -0.33672,-0.33672 -1.00265,0.21296 -1.42857,0 -0.60234,-0.30117 -0.95238,-0.95238 -1.42857,-1.42857 -0.47619,-0.47619 -0.95238,-0.95238 -1.42858,-1.42857 -0.95238,-0.95238 -1.65246,-2.25481 -2.85714,-2.85715 -0.85183,-0.42591 -1.95363,0.30117 -2.85714,0 -0.63888,-0.21295 -0.86824,-1.05501 -1.42857,-1.42857 -0.71942,-3.14737 -2.93885,-0.75513 -4.28572,-1.42857 -0.60234,-0.30117 -0.82623,-1.1274 -1.42857,-1.42857 -0.42592,-0.21296 -1.00265,0.21296 -1.42857,0 -0.60234,-0.30117 -0.82623,-1.1274 -1.42857,-1.42857 -0.42592,-0.21296 -0.97682,0.15058 -1.42857,0 -1.01016,-0.33672 -1.84699,-1.09186 -2.85715,-1.42857 -0.45175,-0.15059 -0.95238,0 -1.42857,0 -0.95238,0 -1.93319,0.23098 -2.85714,0 -1.033,-0.25825 -1.84699,-1.09186 -2.85714,-1.42857 -0.69572,-0.23191 -3.7794,0.25316 -4.28572,0 -0.60234,-0.30117 -0.82623,-1.12741 -1.42857,-1.42858 -0.42592,-0.21295 -0.95238,0 -1.42857,0 h -1.42857 c -4.79884,0.18123 -10.2222,1.34938 -10,2.85715 0.14783,-1.98798 -0.42726,-1.2953 -1.42857,0 -0.42592,0.21296 -0.95238,0 -1.42857,0"
     id="path4516"
     inkscape:connector-curvature="0"
     sodipodi:nodetypes="csccccsccccsccsccsccssscccscscccccssccscccssccsccsssssscccsssccssccscscccsccssssscccccsssccsccscscccc" />
  <path
     style="color:#000000;clip-rule:nonzero;display:inline;overflow:visible;visibility:visible;opacity:1;isolation:auto;mix-blend-mode:normal;color-interpolation:sRGB;color-interpolation-filters:linearRGB;solid-color:#000000;solid-opacity:1;vector-effect:none;fill:none;fill-opacity:1;fill-rule:evenodd;stroke:#000000;stroke-width:1.06666672;stroke-linecap:butt;stroke-linejoin:miter;stroke-miterlimit:4;stroke-dasharray:none;stroke-dashoffset:0;stroke-opacity:1;color-rendering:auto;image-rendering:auto;shape-rendering:auto;text-rendering:auto;enable-background:accumulate"
     d="m 197.14286,654.54287 c -4.76191,0.95238 -9.45921,2.32087 -14.28572,2.85715 -3.78622,0.42069 -7.65733,-0.53875 -11.42857,0 -2.98142,0.42591 -5.61822,2.2665 -8.57143,2.85714 -1.86777,0.37355 -3.84651,-0.37356 -5.71428,0 -5.90642,1.18128 -11.23644,4.533 -17.14286,5.71428 -1.86777,0.37356 -3.8664,-0.46197 -5.71429,0 -2.066,0.51651 -3.64828,2.34065 -5.71428,2.85715 -1.84789,0.46197 -3.80953,0 -5.71429,0 -1.90476,0.95238 -3.69398,2.1837 -5.71428,2.85714 -0.90351,0.30117 -2.06472,-0.52829 -2.85715,0 -2.24132,1.49422 -3.55929,4.09804 -5.71428,5.71429 -1.70367,1.27775 -3.80953,1.90476 -5.71429,2.85714 -1.90476,0.95238 -3.809521,1.90476 -5.714283,2.85714 -1.904762,0.95238 -3.693981,2.18371 -5.714286,2.85714 -0.903508,0.30117 -2.005307,-0.42591 -2.857142,0 -2.409355,1.20468 -3.304932,4.50961 -5.714286,5.71429 -0.851836,0.42592 -2.183708,-0.67344 -2.857143,0 -0.673435,0.67344 0.425918,2.00531 0,2.85714 -0.602339,1.20468 -2.254804,1.65247 -2.857143,2.85715 -0.851835,1.70367 0.851836,4.01061 0,5.71428 -0.602338,1.20468 -2.254804,1.65247 -2.857143,2.85714 -0.425917,0.85184 0,1.90477 0,2.85715 0,0.95238 0,1.90476 0,2.85714 0,0.95238 0,1.90476 0,2.85714 0,1.90476 -0.851835,4.01062 0,5.71429 0.425918,0.85183 2.005308,-0.42592 2.857143,0 1.204677,0.60234 1.652466,2.2548 2.857143,2.85714 0.851835,0.42592 1.953635,-0.30117 2.857143,0 2.020305,0.67344 3.69398,2.18371 5.714286,2.85714 0.865525,0.28851 11.34293,0 11.428571,0 9.52381,0 19.04762,0 28.57143,0 2.85714,0 5.71428,0 8.57143,0 1.90476,0 3.86639,0.46198 5.71428,0 2.06601,-0.5165 3.64828,-2.34064 5.71429,-2.85714 1.84789,-0.46197 3.86639,0.46197 5.71428,0 2.06601,-0.5165 3.64829,-2.34064 5.71429,-2.85714 1.84789,-0.46197 3.80952,0 5.71429,0 4.7619,0 9.52381,0 14.28571,0 1.90476,0 3.90727,0.60234 5.71429,0 1.27775,-0.42592 1.57939,-2.43123 2.85714,-2.85714 1.80701,-0.60234 3.80952,0 5.71428,0 3.80953,0 7.67088,0.62628 11.42858,0 2.10061,-0.35011 3.62605,-2.4395 5.71428,-2.85715 2.80166,-0.56033 5.71429,0 8.57143,0 2.85714,-0.95238 5.64966,-2.1267 8.57143,-2.85714 0.92394,-0.23099 2.00531,0.42592 2.85714,0 1.20468,-0.60234 1.65247,-2.2548 2.85714,-2.85714 0.85184,-0.42592 2.00531,0.42591 2.85715,0 1.20467,-0.60234 1.73648,-2.11004 2.85714,-2.85715 1.77192,-1.18128 3.80952,-1.90476 5.71429,-2.85714 1.90476,-0.95238 3.69398,-2.18371 5.71428,-2.85714 5.27775,-1.75925 1.35456,4.35972 8.57143,-2.85714 0.67343,-0.67344 -0.42592,-2.00531 0,-2.85715 0.60234,-1.20467 1.90476,-1.90476 2.85714,-2.85714 0.95238,-0.95238 1.90476,-1.90476 2.85715,-2.85714 2.85714,-2.85715 5.71428,-5.71429 8.57142,-8.57143 1.90477,-1.90476 4.22007,-3.47296 5.71429,-5.71429 0.52829,-0.79243 -0.42592,-2.0053 0,-2.85714 6.50326,-6.50326 0.75514,0.59173 2.85714,-5.71429 0.67344,-2.0203 1.67586,-3.94236 2.85715,-5.71428 0.44631,-0.66947 5.03804,-3.53338 2.85714,-5.71429 -0.66516,-0.66516 -4.52242,0.59593 -5.71429,0 -12.93922,-6.46961 15.59134,0.52035 -11.42857,-2.85714 -4.81871,-0.60234 -9.47831,-2.17037 -14.28571,-2.85714 -2.30658,-0.32951 -8.52329,0 -11.42857,0 -6.66667,0 -13.33334,0 -20,0 -2.85715,0 -5.71429,0 -8.57143,0 -1.90476,0 -3.88281,-0.52328 -5.71429,0 -4.93139,1.40897 -9.52381,3.80952 -14.28571,5.71428 z"
     id="path9773"
     inkscape:connector-curvature="0" />
  <path
     inkscape:connector-curvature="0"
     id="path8558"
     d="m 495.71429,464.54287 c -0.47619,2.85715 -1.16633,5.68677 -1.42858,8.57143 -0.21556,2.37118 0,4.76191 0,7.14286 0,6.19047 0,12.38095 0,18.57143 0,2.85714 0.23728,5.72415 0,8.57143 -0.24054,2.88654 -1.18802,5.68488 -1.42857,8.57142 -0.23727,2.84728 0,5.71429 0,8.57143 0,3.33334 0,6.66667 0,10 0,8.09524 0,16.19048 0,24.28572 0,9.04762 0,18.09524 0,27.14285 0,2.85715 0,5.71429 0,8.57143 0,3.80953 -0.34489,7.6347 0,11.42857 0.13634,1.49967 1.26228,2.78908 1.42857,4.28572 0.31552,2.83967 0,5.71428 0,8.57143 0,2.38095 0,4.7619 0,7.14285 0,2.85715 -0.23727,5.72416 0,8.57143 0.24055,2.88655 1.14036,5.68925 1.42858,8.57143 0.84738,8.47385 -1.32554,3.06321 1.42857,8.57143"
     style="color:#000000;clip-rule:nonzero;display:inline;overflow:visible;visibility:visible;opacity:1;isolation:auto;mix-blend-mode:normal;color-interpolation:sRGB;color-interpolation-filters:linearRGB;solid-color:#000000;solid-opacity:1;vector-effect:none;fill:none;fill-opacity:1;fill-rule:evenodd;stroke:#000000;stroke-width:1.06666672px;stroke-linecap:butt;stroke-linejoin:miter;stroke-miterlimit:4;stroke-dasharray:none;stroke-dashoffset:0;stroke-opacity:1;color-rendering:auto;image-rendering:auto;shape-rendering:auto;text-rendering:auto;enable-background:accumulate;font-variant-east_asian:normal" />
  <ellipse
     id="ellipse9412"
     style="color:#000000;clip-rule:nonzero;display:inline;overflow:visible;visibility:visible;opacity:1;isolation:auto;mix-blend-mode:normal;color-interpolation:sRGB;color-interpolation-filters:linearRGB;solid-color:#000000;solid-opacity:1;vector-effect:none;fill:none;fill-opacity:1;fill-rule:evenodd;stroke:#000000;stroke-width:1.06666672;stroke-linecap:butt;stroke-linejoin:miter;stroke-miterlimit:4;stroke-dasharray:none;stroke-dashoffset:0;stroke-opacity:1;color-rendering:auto;image-rendering:auto;shape-rendering:auto;text-rendering:auto;enable-background:accumulate"
     transform="rotate(162.95,990.090730,670.792340)"
     rx="112.067775211"
     ry="30.4362974388"
     cy="670.79234"
     cx="990.09073" />
  <rect
     width="147.979844746"
     height="123.786237337"
     x="1208.42332763"
     y="266.871471331"
     style="display:inline;fill:none;stroke:#000000;stroke-width:1.06666672px;stroke-linecap:butt;stroke-linejoin:miter;stroke-opacity:1"
     id="rect9482" />
  <path
     d="M842.282751781 187.149086525L842.282751781 335.128931271"
     style="display:inline;fill:none;stroke:#000000;stroke-width:1.06666672px;stroke-linecap:butt;stroke-linejoin:miter;stroke-opacity:1"
     id="path9484" />
  <path
     d="M961.456824998 596.57551387L995.841704314 537.019155883L1023.42735284 509.433507355L1066.42003361 593.508542459L1128.31315227 486.306516286L1160.35138802 605.874839869"
     style="display:inline;fill:none;stroke:#000000;stroke-width:1.06666672px;stroke-linecap:butt;stroke-linejoin:miter;stroke-opacity:1"
     id="path9486" />
  <path
     d="M804.867933026 397.464351368L1073.73370275 286.09650309L1112.03370486 429.0340569L843.167935138 540.401905179L825.369011877 473.975419249L805.863012739 440.19003769"
     style="fill:none;stroke:#000000;stroke-width:1.06666672px;stroke-linecap:butt;stroke-linejoin:miter;stroke-opacity:1"
     id="path9488" />
  <circle
     id="circle9559"
     style="color:#000000;clip-rule:nonzero;display:inline;overflow:visible;visibility:visible;opacity:1;isolation:auto;mix-blend-mode:normal;color-interpolation:sRGB;color-interpolation-filters:linearRGB;solid-color:#000000;solid-opacity:1;vector-effect:none;fill:none;fill-opacity:1;fill-rule:evenodd;stroke:#000000;stroke-width:1.06666672px;stroke-linecap:butt;stroke-linejoin:miter;stroke-miterlimit:4;stroke-dasharray:none;stroke-dashoffset:0;stroke-opacity:1;color-rendering:auto;image-rendering:auto;shape-rendering:auto;text-rendering:auto;enable-background:accumulate"
     r="49.4987806138"
     cy="536.506625"
     cx="1302.6926454" />
  <path
     id="path9561"
     style="color:#000000;clip-rule:nonzero;display:inline;overflow:visible;visibility:visible;opacity:1;isolation:auto;mix-blend-mode:normal;color-interpolation:sRGB;color-interpolation-filters:linearRGB;solid-color:#000000;solid-opacity:1;vector-effect:none;fill:none;fill-opacity:1;fill-rule:evenodd;stroke:#000000;stroke-width:1.06666672px;stroke-linecap:butt;stroke-linejoin:miter;stroke-miterlimit:4;stroke-dasharray:none;stroke-dashoffset:0;stroke-opacity:1;color-rendering:auto;image-rendering:auto;shape-rendering:auto;text-rendering:auto;enable-background:accumulate"
     d="M1302.6926454 447.942789177L1302.6926454 635.08966761" />
  <path
     id="path9563"
     style="color:#000000;clip-rule:nonzero;display:inline;overflow:visible;visibility:visible;opacity:1;isolation:auto;mix-blend-mode:normal;color-interpolation:sRGB;color-interpolation-filters:linearRGB;solid-color:#000000;solid-opacity:1;vector-effect:none;fill:none;fill-opacity:1;fill-rule:evenodd;stroke:#000000;stroke-width:1.06666672px;stroke-linecap:butt;stroke-linejoin:miter;stroke-miterlimit:4;stroke-dasharray:none;stroke-dashoffset:0;stroke-opacity:1;color-rendering:auto;image-rendering:auto;shape-rendering:auto;text-rendering:auto;enable-background:accumulate"
     d="M1193.03610488 540.68005504L1421.57187514 540.68005504" />
</svg>
