<?xml version="1.0" encoding="UTF-8" standalone="no"?>
<!-- Created with Inkscape (http://www.inkscape.org/) -->

<svg
   xmlns:dc="http://purl.org/dc/elements/1.1/"
   xmlns:cc="http://creativecommons.org/ns#"
   xmlns:rdf="http://www.w3.org/1999/02/22-rdf-syntax-ns#"
   xmlns:svg="http://www.w3.org/2000/svg"
   xmlns="http://www.w3.org/2000/svg"
   xmlns:sodipodi="http://sodipodi.sourceforge.net/DTD/sodipodi-0.dtd"
   xmlns:inkscape="http://www.inkscape.org/namespaces/inkscape"
   id="svg10137"
   version="1.1"
   viewBox="0 0 47.718235 45.450374"
   height="45.450375mm"
   width="47.718235mm"
   inkscape:version="0.92.1 r15371"
   sodipodi:docname="logo.svg"
   inkscape:export-filename="/home/delsart/maison/InkscapeShapeReco/doc/logo.png"
   inkscape:export-xdpi="59.581638"
   inkscape:export-ydpi="59.581638">
  <sodipodi:namedview
     inkscape:window-maximized="1"
     inkscape:window-y="28"
     inkscape:window-x="43"
     inkscape:window-height="1135"
     inkscape:window-width="1877"
     showgrid="false"
     inkscape:current-layer="layer1"
     inkscape:document-units="mm"
     inkscape:cy="46.383114"
     inkscape:cx="-15.902374"
     inkscape:zoom="2.8"
     inkscape:pageshadow="2"
     inkscape:pageopacity="1"
     borderopacity="1.0"
     bordercolor="#666666"
     pagecolor="#ffffff"
     id="base"
     fit-margin-top="0"
     fit-margin-left="0"
     fit-margin-right="0"
     fit-margin-bottom="0" />
  <defs
     id="defs10131" />
  <metadata
     id="metadata10134">
    <rdf:RDF>
      <cc:Work
         rdf:about="">
        <dc:format>image/svg+xml</dc:format>
        <dc:type
           rdf:resource="http://purl.org/dc/dcmitype/StillImage" />
        <dc:title />
      </cc:Work>
    </rdf:RDF>
  </metadata>
  <g
     inkscape:label="Calque 1"
     inkscape:groupmode="layer"
     id="layer1"
     transform="translate(-88.542383,-11.178407)">
    <path
       style="color:#000000;clip-rule:nonzero;display:inline;overflow:visible;visibility:visible;opacity:1;isolation:auto;mix-blend-mode:normal;color-interpolation:sRGB;color-interpolation-filters:linearRGB;solid-color:#000000;solid-opacity:1;vector-effect:none;fill:none;fill-opacity:1;fill-rule:evenodd;stroke:#80b3ff;stroke-width:1.28199995;stroke-linecap:butt;stroke-linejoin:miter;stroke-miterlimit:4;stroke-dasharray:none;stroke-dashoffset:0;stroke-opacity:1;color-rendering:auto;image-rendering:auto;shape-rendering:auto;text-rendering:auto;enable-background:accumulate"
       d="m 60.453416,34.136137 c 0,1.069078 0,2.138156 0,3.207234 0,0.267269 0,0.534538 0,0.801806 0,0.08909 -0.01466,0.179393 0,0.267272 0.07468,0.44809 0.217103,0.884854 0.267268,1.336347 0.03935,0.354179 0,0.712719 0,1.069078 0,0.267269 0,0.534538 0,0.801809 0,0.267269 -0.04394,0.538176 0,0.801807 0.04632,0.277894 0.220956,0.523917 0.267271,0.801809 0.04394,0.263634 0,0.534541 0,0.80181 0,0.712718 0,1.425437 0,2.138156 0,0.356359 0,0.712718 0,1.069078 0,0.08909 0.02817,0.18275 0,0.267269 -0.063,0.188989 -0.204274,0.345551 -0.267271,0.53454 -0.02817,0.08452 0.01746,0.179909 0,0.267269 -0.07204,0.360193 -0.20688,0.70675 -0.267268,1.069078 -0.02929,0.175755 0.04321,0.36168 0,0.53454 -0.02622,0.104849 -0.508326,0.964227 -0.534539,1.069078 -0.04321,0.172858 0.04322,0.361678 0,0.534538 -0.04831,0.193262 -0.178181,0.356359 -0.267271,0.53454 -0.08909,0.267269 -0.212016,0.525553 -0.267269,0.801807 -0.03494,0.17472 0.03494,0.35982 0,0.53454 -0.05525,0.276257 -0.220953,0.523915 -0.267269,0.80181 -0.04394,0.263633 0.04394,0.538175 0,0.801806 -0.391022,2.34614 -0.09832,-0.408546 -0.53454,1.33635 -0.04321,0.17286 0.03495,0.359817 0,0.534537 -0.05525,0.276257 -0.19894,0.528495 -0.267269,0.80181 -0.02162,0.08643 0.02817,0.18275 0,0.267268 -0.063,0.18899 -0.204274,0.345552 -0.267269,0.534541 -0.02817,0.08452 0,0.178178 0,0.267269 0,0.08909 0,0.178181 0,0.267268 0,0.35636 0,0.712719 0,1.069079 0,0.356359 0,0.712718 0,1.069078 0,0.267271 0,0.53454 0,0.801809 0,0.08909 -0.02817,0.18275 0,0.267269 0.290817,0.872447 0.349155,0.224036 0.534538,1.336349 0.04394,0.263631 -0.05241,0.539729 0,0.801807 0.03907,0.195344 0.204274,0.345551 0.267271,0.53454 0.02817,0.08452 0,0.178179 0,0.267269 0,0.178181 -0.05635,0.365503 0,0.53454 0.03984,0.119526 0.227426,0.147741 0.267269,0.267269 0.05635,0.169037 -0.04321,0.36168 0,0.534538 0.04832,0.193265 0.204274,0.345551 0.267269,0.53454 0.05331,0.159938 -0.05331,0.641872 0,0.801809 0.063,0.188987 0.204274,0.345552 0.267269,0.534538 0.02817,0.08452 0,0.178181 0,0.267269 0,0.08909 0,0.178181 0,0.267272 0,0.267268 0,0.534537 0,0.801806 0,0.08909 0,0.178181 0,0.267272 0,0.08909 -0.03984,0.187584 0,0.267268 0.05635,0.112692 0.210926,0.154578 0.267271,0.267269 0.01926,0.03855 0,0.716399 0,0.80181 0,0.04069 0.02689,0.961506 0,1.069078 -0.06833,0.273314 -0.19894,0.528494 -0.267271,0.801809 -0.02689,0.107571 0,1.028385 0,1.069078 0,0.08909 -0.02817,0.18275 0,0.267269 0.063,0.188989 0.204274,0.345551 0.267271,0.53454 0.02817,0.08452 -0.03984,0.187584 0,0.267269 0.31972,0.63944 0.214818,-0.104902 0.534539,0.534538 0.03984,0.07968 -0.03984,0.187587 0,0.267271 0.05635,0.112689 0.178181,0.178178 0.267268,0.267269 0.08909,0.08909 0.15458,0.210923 0.267271,0.267269 0.484852,0.242427 1.731529,0.483711 2.138158,0.53454 0.265204,0.03315 0.5366,-0.03315 0.801808,0 0.450762,0.05634 0.885584,0.210923 1.336347,0.267269 0.53041,0.0663 1.076352,-0.08788 1.603615,0 0.277895,0.04632 0.525553,0.212019 0.80181,0.267269 0.17472,0.03494 0.356359,0 0.53454,0 0.178179,0 0.35636,0 0.534538,0 0.08909,0 0.178182,0 0.267272,0 0.0891,0 0.18275,0.02817 0.26727,0 1.04086,-0.346953 0.025,-0.267269 1.06908,-0.267269 0.89089,0 1.78179,0 2.67269,0 0.26727,0 0.53454,0 0.80181,0 0.26727,0 0.53818,0.04394 0.80181,0 0.27789,-0.04631 0.52391,-0.220953 0.80181,-0.267269 0.26363,-0.04394 0.53817,0.04394 0.8018,0 0.2779,-0.04632 0.52292,-0.227428 0.80181,-0.267271 0.35278,-0.0504 0.7163,0.0504 1.06908,0 0.2789,-0.03984 0.52555,-0.212019 0.80181,-0.267269 0.17472,-0.03494 0.35636,0 0.53454,0 0.23842,0 1.49291,0.02214 1.60362,0 0.19534,-0.03907 0.34555,-0.204274 0.53453,-0.267269 0.0737,-0.02455 0.688407,0 0.801807,0 0.0891,0 0.17818,0 0.26727,0 0.17818,0 0.36551,-0.05635 0.53454,0 0.11953,0.03984 0.17818,0.178178 0.26727,0.267269 0.17818,0.08909 0.3392,0.2282 0.53454,0.267269 0.26208,0.05242 0.53722,-0.0378 0.80181,0 0.72727,0.103896 1.40799,0.453411 2.13815,0.53454 3.62173,0 0.005,-0.199213 1.87089,0.267269 0.35362,0.08841 0.98273,-0.0884 1.33635,0 0.19326,0.04832 0.34128,0.218953 0.53454,0.267269 0.17286,0.04322 0.35636,0 0.53454,0 0.17818,0 0.35636,0 0.53454,0 0.97998,0 1.95997,0 2.93996,0 0.53454,0 1.06908,0 1.60362,0 0.17818,0 0.35636,0 0.53454,0 0.17818,0 0.3655,0.05635 0.53454,0 0.11952,-0.03984 0.14774,-0.227425 0.26727,-0.267269 0.33807,-0.112691 0.731,0.112691 1.06908,0 0.11952,-0.03984 0.14774,-0.227428 0.26726,-0.267269 0.16904,-0.05635 0.36551,0.05635 0.53454,0 1.17979,-0.393261 -0.97103,-0.267269 0.80181,-0.267269 1.15818,0 2.31635,0 3.47452,0 0.26727,0 0.53454,0 0.80181,0 0.26727,0 0.53722,-0.0378 0.80181,0 0.36363,0.05195 0.70399,0.226703 1.06907,0.267269 0.44273,0.04919 0.89311,-0.04433 1.33635,0 0.45202,0.0452 0.88486,0.217104 1.33635,0.267269 0.35418,0.03935 0.71272,0 1.06908,0 0.26727,0 0.53454,0 0.80181,0 0.26727,0 0.53454,0 0.80181,0 0.0891,0 0.17818,0 0.26726,0 0.0891,0 0.18759,0.03984 0.26728,0 0.11268,-0.05635 0.17817,-0.178178 0.26726,-0.267269 0.0891,-0.08909 0.17818,-0.178181 0.26727,-0.267269 0.76168,-0.761674 0.39477,-0.324876 1.06908,-1.336349 1.02726,-1.540881 0.13788,-0.05446 0.80181,-1.603616 0.15695,-0.366207 0.39464,-0.696024 0.53454,-1.069078 0.26606,-0.709486 0.40257,-2.012858 0.53454,-2.672697 0.1678,-0.838996 0.27981,-1.106688 0.53454,-1.870887 0.19038,-0.571151 0.45064,-1.283589 0.53454,-1.870885 0.0378,-0.264583 0,-0.53454 0,-0.801809 0.0891,-0.267269 0.22095,-0.523914 0.26727,-0.801809 0.0439,-0.263633 0,-0.534538 0,-0.801809 0,-0.267269 0,-0.534538 0,-0.801807 0,-0.267271 -0.0439,-0.538175 0,-0.801809 0.0463,-0.277894 0.22742,-0.522915 0.26726,-0.801809 0.0504,-0.352777 0,-0.712719 0,-1.069078 0,-0.267269 0.0332,-0.536604 0,-0.801809 -0.0563,-0.450763 -0.21092,-0.885585 -0.26726,-1.336347 -0.0332,-0.265205 0.0524,-0.539729 0,-0.80181 -0.0391,-0.195341 -0.22821,-0.339195 -0.26727,-0.534537 -0.10484,-0.524158 0.0756,-1.074452 0,-1.603619 -0.3321,-2.324642 -0.26727,0.02315 -0.26727,-1.870887 0,-1.158166 0,-2.316334 0,-3.474503 0,-0.267269 0,-0.534538 0,-0.801809 0,-0.445447 -0.0553,-0.894337 0,-1.336347 0.0349,-0.279551 0.22095,-0.523915 0.26727,-0.801809 0.0439,-0.263634 0,-0.534538 0,-0.801807 0,-0.801809 0,-1.603618 0,-2.405428 0,-0.623628 0,-1.247256 0,-1.870887 0,-0.267269 0.0439,-0.538173 0,-0.801807 -0.0463,-0.277894 -0.21202,-0.525552 -0.26727,-0.801809 -0.0823,-0.411565 0.0823,-0.924785 0,-1.336347 -0.0391,-0.195345 -0.23452,-0.33804 -0.26727,-0.53454 -0.0586,-0.35151 0,-0.712719 0,-1.069078 0,-0.178179 0,-0.35636 0,-0.534538 0,-0.178181 0.0432,-0.36168 0,-0.53454 -0.0483,-0.193263 -0.21896,-0.341276 -0.26727,-0.534538 -0.0432,-0.17286 0,-0.35636 0,-0.534541 0,-0.178178 0,-0.356359 0,-0.534537 0,-0.08909 0.0398,-0.187587 0,-0.267272 -0.11269,-0.22538 -0.42185,-0.309157 -0.53454,-0.534537 -0.32914,-0.658273 0.77581,0.241273 -0.26727,-0.80181 -0.14086,-0.140864 -0.36879,-0.156768 -0.53454,-0.267268 -0.10483,-0.06989 -0.17818,-0.178181 -0.26727,-0.267269 -0.0891,-0.08909 -0.17818,-0.178181 -0.26727,-0.267272 -0.0891,-0.08909 -0.16244,-0.197382 -0.26727,-0.267269 -0.16575,-0.110503 -0.36878,-0.156768 -0.53454,-0.267269 -0.20966,-0.139776 -0.30915,-0.421849 -0.53454,-0.53454 -0.15937,-0.07968 -0.37517,0.07968 -0.53453,0 -0.1127,-0.05635 -0.15458,-0.210923 -0.26728,-0.267269 -0.15937,-0.07968 -0.3655,0.05635 -0.53453,0 -0.18899,-0.06299 -0.3392,-0.2282 -0.53454,-0.267269 -0.26208,-0.05242 -0.53454,0 -0.80181,0 -0.53454,0 -1.06908,0 -1.60362,0 -1.33635,0 -2.67269,0 -4.00904,0 -0.26727,0 -0.53454,0 -0.80181,0 -0.26727,0 -0.53617,-0.02951 -0.80181,0 -2.9327,0.325853 -0.41886,0.267269 -2.67271,0.267269 -2.04906,0 -4.09813,0 -6.1472,0 -0.53454,0 -1.06908,0 -1.60361,0 -0.35636,0 -0.71547,-0.0442 -1.06908,0 -0.36449,0.04556 -0.70675,0.206881 -1.06908,0.267269 -0.17575,0.02929 -0.35636,0 -0.53454,0 -0.17818,0 -0.35636,0 -0.53454,0 -0.62363,0 -1.24726,0 -1.87089,0 -0.26726,0 -0.53817,-0.04394 -0.8018,0 -0.2779,0.04631 -0.52292,0.227428 -0.80181,0.267272 -0.35278,0.0504 -0.71272,0 -1.06908,0 -0.53454,0 -1.06908,0 -1.60362,0 -0.17818,0 -0.35636,0 -0.53454,0 -0.17818,0 -0.3655,-0.05635 -0.53453,0 -0.119527,0.03984 -0.147747,0.227425 -0.267267,0.267268 -0.16904,0.05635 -0.35636,0 -0.53454,0 -0.17818,0 -0.35636,0 -0.53454,0 -0.26727,0 -0.53818,-0.04394 -0.80181,0 -0.2779,0.04632 -0.52392,0.220954 -0.80181,0.267269 -0.26363,0.04394 -0.53454,0 -0.80181,0 -0.26727,0 -0.53454,0 -0.80181,0 -0.97999,0 -1.95997,0 -2.93996,0 -0.35636,0 -0.71272,0 -1.06908,0 -0.35636,0 -0.71547,-0.0442 -1.06908,0 -0.36449,0.04556 -0.70888,0.195231 -1.06908,0.267269 -0.0874,0.01746 -0.17818,0 -0.26727,0 -0.0891,0 -0.17818,0 -0.26727,0 -0.35636,0 -0.71271,0 -1.06907,0 -0.0891,0 -0.18275,-0.02817 -0.26727,0 -0.18899,0.063 -0.34128,0.218953 -0.53454,0.267272 -0.0709,0.01773 -1.234945,0 -1.33635,0 -1.069077,0 -2.138155,0 -3.207235,0"
       id="path10682"
       inkscape:connector-curvature="0" />
    <path
       inkscape:connector-curvature="0"
       id="path10723"
       d="m 125.77316,33.312162 c 0.095,-0.62276 0.22199,-1.241466 0.28496,-1.868268 0.0356,-0.354579 0.007,-0.712689 0.0101,-1.069033 0.007,-0.712688 0.0135,-1.425376 0.0202,-2.138064 0.005,-0.534516 0.0101,-1.069032 0.0152,-1.603538 7.9e-4,-0.0891 0.0299,-0.182486 0.003,-0.267258 -0.0612,-0.189578 -0.15327,-0.370257 -0.2622,-0.537044 -0.0689,-0.105487 -0.22602,-0.149895 -0.26473,-0.269787 -0.0547,-0.169565 0.0466,-0.361255 0.005,-0.534516 -0.15561,-0.648441 -0.39735,-0.540372 -0.79166,-1.076616 -0.11802,-0.160494 -0.14419,-0.376551 -0.2622,-0.537044 -0.14928,-0.203012 -0.35298,-0.359715 -0.52946,-0.539573 -0.17649,-0.179857 -0.32932,-0.386482 -0.52946,-0.539572 -0.15823,-0.121022 -0.37376,-0.151282 -0.53199,-0.272304 -0.20015,-0.1531 -0.35297,-0.359715 -0.52946,-0.539583 -0.17649,-0.179847 -0.35297,-0.359705 -0.52946,-0.539562 -0.17648,-0.179857 -0.32931,-0.386482 -0.52946,-0.539572 -0.77491,-0.592727 -0.36891,0.129926 -1.06144,-0.811887 -0.11802,-0.160493 -0.14419,-0.376551 -0.26221,-0.537044 -0.14927,-0.203011 -0.35297,-0.359715 -0.52945,-0.539573 -0.26473,-0.269786 -0.49397,-0.579721 -0.79419,-0.809355 -0.15823,-0.121031 -0.35466,-0.181544 -0.53199,-0.272316 -0.17733,-0.09077 -0.3436,-0.207532 -0.53199,-0.272314 -0.0842,-0.02897 -0.17817,-0.0017 -0.26725,-0.0025 -0.0891,-8.41e-4 -0.17817,-0.0017 -0.26726,-0.0025 -0.26726,-0.0025 -0.53452,-0.0051 -0.80177,-0.0076 -0.26726,-0.0025 -0.53452,-0.0051 -0.80178,-0.0076 -0.17817,-0.0017 -0.36125,-0.04663 -0.53451,-0.0051 -0.19371,0.04649 -0.34747,0.200997 -0.53704,0.262201 -0.0848,0.02737 -0.18248,-0.0299 -0.26726,-0.0025 -0.18958,0.06121 -0.34334,0.215715 -0.53705,0.262205 -0.17326,0.04157 -0.36125,-0.04664 -0.53451,-0.0051 -0.19371,0.04649 -0.34747,0.200993 -0.53704,0.262199 -1.8994,0.61323 -0.39757,-0.07191 -1.6086,0.519346 -0.17902,0.0874 -0.39486,0.122681 -0.53705,0.262202 -0.14219,0.139522 -0.13012,0.392457 -0.27231,0.531989 -0.0276,0.02704 -1.02048,0.484978 -1.07409,0.524403 -0.20301,0.149277 -0.35971,0.352974 -0.53957,0.529461 -0.0899,0.08825 -0.19891,0.160566 -0.26979,0.264729 -0.11206,0.164698 -0.15128,0.373756 -0.27231,0.531988 -0.15309,0.200141 -0.38648,0.329309 -0.53957,0.52945 -0.12103,0.158232 -0.16821,0.362145 -0.27231,0.531989 -0.23233,0.379028 -0.65735,0.871961 -0.81442,1.328705 -0.52122,1.515737 -0.0253,0.583716 -0.55221,1.86575 -0.29182,0.709992 -0.3615,0.446521 -0.54716,1.331223 -0.0366,0.174382 0.0315,0.360135 -0.005,0.534517 -0.0579,0.275725 -0.2259,0.521806 -0.27484,0.799246 -0.0464,0.263202 0.0388,0.538571 -0.008,0.801774 -0.0489,0.277439 -0.22591,0.521796 -0.27485,0.799246 -0.0464,0.263202 -0.005,0.534516 -0.008,0.801774 -0.002,0.178172 -0.003,0.356344 -0.005,0.534516 -0.007,0.712688 -0.0135,1.425366 -0.0202,2.138054 -0.003,0.356344 -0.007,0.712688 -0.0101,1.069032 -0.002,0.178172 -0.0383,0.359475 -0.005,0.534518 0.30115,1.583528 0.17085,0.02852 0.7866,1.611132 0.0646,0.166049 -0.0598,0.364951 -0.005,0.534516 0.0387,0.119892 0.19584,0.1643 0.26473,0.269786 0.10893,0.166788 0.15327,0.370247 0.2622,0.537045 0.13779,0.210972 0.39168,0.328589 0.52946,0.539572 0.10893,0.166788 0.15327,0.370256 0.2622,0.537043 0.0689,0.105487 0.19584,0.164301 0.26473,0.269786 0.10893,0.166799 0.14419,0.376562 0.2622,0.537045 0.22392,0.304522 0.52946,0.539583 0.79419,0.809368 0.44122,0.449644 0.88244,0.899287 1.32365,1.348931 0.26473,0.269787 0.52946,0.539582 0.79419,0.809359 0.0882,0.08994 0.15258,0.212382 0.26473,0.269795 0.0793,0.04055 0.18795,-0.03802 0.26726,0.0025 0.0947,0.0485 0.43473,0.491086 0.52945,0.539573 0.25079,0.128368 0.53867,0.167743 0.79925,0.274842 0.18425,0.07575 0.33919,0.222167 0.53199,0.272314 0.17244,0.04483 0.36207,-0.03978 0.53451,0.0051 0.3856,0.100251 0.67838,0.444347 1.06398,0.544627 0.17244,0.04483 0.35634,0.0034 0.53451,0.0051 0.35634,0.0034 0.71269,0.0067 1.06903,0.01011 0.53452,0.0051 1.06903,0.01011 1.60355,0.01516 0.17817,0.0016 0.36495,0.05975 0.53451,0.0051 0.1199,-0.03867 0.14989,-0.22602 0.26979,-0.264729 1.21663,0.01151 0.0141,0.12613 0.8043,-0.259675 0.0801,-0.03904 0.17817,0.0016 0.26726,0.0024 0.17817,0.0016 0.36495,0.05975 0.53451,0.0051 0.1199,-0.03867 0.1643,-0.195837 0.26979,-0.264732 0.16679,-0.108926 0.37025,-0.153273 0.53704,-0.262202 0.21098,-0.137789 0.3286,-0.391678 0.53957,-0.52946 0.16679,-0.108927 0.39485,-0.12268 0.53704,-0.262212 0.14219,-0.139521 0.13013,-0.392456 0.27232,-0.531988 0.14219,-0.139521 0.39485,-0.12267 0.53704,-0.262201 0.14219,-0.139522 0.13012,-0.392457 0.27232,-0.531988 0.14219,-0.139522 0.39485,-0.122681 0.53704,-0.262202 0.0636,-0.0624 -0.0611,-0.204857 0.003,-0.267258 0.0636,-0.0624 0.20366,0.06493 0.26725,0.0025 0.0636,-0.0624 -0.0611,-0.204867 0.003,-0.267258 0.0636,-0.0624 0.20367,0.06493 0.26726,0.0025 0.0636,-0.0624 -0.0381,-0.187958 0.003,-0.267258 0.11482,-0.224314 0.42475,-0.305156 0.53957,-0.52947 0.0406,-0.07932 -0.0381,-0.187948 0.003,-0.267258 0.11481,-0.224304 0.42475,-0.305156 0.53957,-0.52946 0.0406,-0.07932 0.002,-0.178172 0.003,-0.267258 0.0899,-0.08825 0.21237,-0.152578 0.26978,-0.26473 0.0406,-0.07932 -0.0611,-0.204866 0.003,-0.267258 0.0636,-0.0624 0.20367,0.06493 0.26726,0.0025 0.0636,-0.0624 -0.0381,-0.187958 0.003,-0.267258 0.0574,-0.112162 0.21237,-0.152578 0.26978,-0.26474 0.0196,-0.03842 0.007,-0.716357 0.008,-0.801764"
       style="color:#000000;clip-rule:nonzero;display:inline;overflow:visible;visibility:visible;opacity:1;isolation:auto;mix-blend-mode:normal;color-interpolation:sRGB;color-interpolation-filters:linearRGB;solid-color:#000000;solid-opacity:1;vector-effect:none;fill:none;fill-opacity:1;fill-rule:evenodd;stroke:#80b3ff;stroke-width:1.28199995;stroke-linecap:butt;stroke-linejoin:miter;stroke-miterlimit:4;stroke-dasharray:none;stroke-dashoffset:0;stroke-opacity:1;color-rendering:auto;image-rendering:auto;shape-rendering:auto;text-rendering:auto;enable-background:accumulate" />
    <ellipse
       id="ellipse11001"
       style="color:#000000;clip-rule:nonzero;display:inline;overflow:visible;visibility:visible;opacity:1;isolation:auto;mix-blend-mode:normal;color-interpolation:sRGB;color-interpolation-filters:linearRGB;solid-color:#000000;solid-opacity:1;vector-effect:none;fill:none;fill-opacity:1;fill-rule:evenodd;stroke:#550000;stroke-width:0.38200003;stroke-linecap:butt;stroke-linejoin:miter;stroke-miterlimit:4;stroke-dasharray:none;stroke-dashoffset:0;stroke-opacity:1;color-rendering:auto;image-rendering:auto;shape-rendering:auto;text-rendering:auto;enable-background:accumulate"
       transform="rotate(79.451973)"
       rx="13.890302"
       ry="10.590079"
       cy="-106.53178"
       cx="52.248203" />
    <rect
       width="47.958611"
       height="47.958611"
       x="-115.59612"
       y="-79.438164"
       transform="scale(-1)"
       style="color:#000000;clip-rule:nonzero;display:inline;overflow:visible;visibility:visible;opacity:1;isolation:auto;mix-blend-mode:normal;color-interpolation:sRGB;color-interpolation-filters:linearRGB;solid-color:#000000;solid-opacity:1;vector-effect:none;fill:none;fill-opacity:1;fill-rule:evenodd;stroke:#550000;stroke-width:0.38200003;stroke-linecap:butt;stroke-linejoin:miter;stroke-miterlimit:4;stroke-dasharray:none;stroke-dashoffset:0;stroke-opacity:1;color-rendering:auto;image-rendering:auto;shape-rendering:auto;text-rendering:auto;enable-background:accumulate"
       id="rect10714" />
  </g>
</svg>
