<?xml version="1.0" encoding="UTF-8" standalone="no"?>
<!-- Created with Inkscape (http://www.inkscape.org/) -->

<svg
   xmlns:dc="http://purl.org/dc/elements/1.1/"
   xmlns:cc="http://creativecommons.org/ns#"
   xmlns:rdf="http://www.w3.org/1999/02/22-rdf-syntax-ns#"
   xmlns:svg="http://www.w3.org/2000/svg"
   xmlns="http://www.w3.org/2000/svg"
   xmlns:sodipodi="http://sodipodi.sourceforge.net/DTD/sodipodi-0.dtd"
   xmlns:inkscape="http://www.inkscape.org/namespaces/inkscape"
   id="svg10137"
   version="1.1"
   viewBox="0 0 66.66484 56.508598"
   height="56.508598mm"
   width="66.664841mm"
   inkscape:version="0.92.1 r15371"
   sodipodi:docname="logo.svg">
  <sodipodi:namedview
     inkscape:window-maximized="1"
     inkscape:window-y="28"
     inkscape:window-x="43"
     inkscape:window-height="1135"
     inkscape:window-width="1877"
     showgrid="false"
     inkscape:current-layer="layer1"
     inkscape:document-units="mm"
     inkscape:cy="-155.77084"
     inkscape:cx="225.59402"
     inkscape:zoom="0.98994949"
     inkscape:pageshadow="2"
     inkscape:pageopacity="0.0"
     borderopacity="1.0"
     bordercolor="#666666"
     pagecolor="#ffffff"
     id="base"
     fit-margin-top="0"
     fit-margin-left="0"
     fit-margin-right="0"
     fit-margin-bottom="0" />
  <defs
     id="defs10131" />
  <metadata
     id="metadata10134">
    <rdf:RDF>
      <cc:Work
         rdf:about="">
        <dc:format>image/svg+xml</dc:format>
        <dc:type
           rdf:resource="http://purl.org/dc/dcmitype/StillImage" />
        <dc:title></dc:title>
      </cc:Work>
    </rdf:RDF>
  </metadata>
  <g
     inkscape:label="Calque 1"
     inkscape:groupmode="layer"
     id="layer1"
     transform="translate(-51.925306,-30.160475)">
    <path
       style="color:#000000;clip-rule:nonzero;display:inline;overflow:visible;visibility:visible;opacity:1;isolation:auto;mix-blend-mode:normal;color-interpolation:sRGB;color-interpolation-filters:linearRGB;solid-color:#000000;solid-opacity:1;vector-effect:none;fill:none;fill-opacity:1;fill-rule:evenodd;stroke:#80b3ff;stroke-width:1.28199995;stroke-linecap:butt;stroke-linejoin:miter;stroke-miterlimit:4;stroke-dasharray:none;stroke-dashoffset:0;stroke-opacity:1;color-rendering:auto;image-rendering:auto;shape-rendering:auto;text-rendering:auto;enable-background:accumulate"
       d="m 57.997486,36.679481 c 0,1.069078 0,2.138156 0,3.207234 0,0.267269 0,0.534538 0,0.801806 0,0.08909 -0.01466,0.179393 0,0.267272 0.07468,0.44809 0.217104,0.884854 0.267269,1.336347 0.03935,0.354179 0,0.712719 0,1.069078 0,0.267269 0,0.534538 0,0.801809 0,0.267269 -0.04394,0.538176 0,0.801807 0.04632,0.277894 0.220956,0.523917 0.267271,0.801809 0.04394,0.263633 0,0.53454 0,0.801809 0,0.712719 0,1.425437 0,2.138156 0,0.356359 0,0.712719 0,1.069078 0,0.08909 0.02817,0.182751 0,0.267269 -0.063,0.188989 -0.204274,0.345551 -0.267271,0.53454 -0.02817,0.08452 0.01746,0.179909 0,0.267269 -0.07204,0.360193 -0.20688,0.70675 -0.267269,1.069078 -0.02929,0.175755 0.04321,0.36168 0,0.534541 -0.02622,0.104849 -0.508325,0.964226 -0.534538,1.069078 -0.04321,0.172857 0.04322,0.361677 0,0.534537 -0.04831,0.193263 -0.178181,0.35636 -0.267271,0.534541 -0.08909,0.267269 -0.212016,0.525552 -0.267269,0.801806 -0.03494,0.174721 0.03494,0.35982 0,0.534541 -0.05525,0.276256 -0.220953,0.523914 -0.267269,0.801809 -0.04394,0.263633 0.04394,0.538176 0,0.801806 -0.391022,2.34614 -0.09832,-0.408545 -0.53454,1.33635 -0.04321,0.17286 0.03495,0.359817 0,0.534538 -0.05525,0.276256 -0.19894,0.528494 -0.267269,0.801809 -0.02162,0.08643 0.02817,0.18275 0,0.267269 -0.063,0.188989 -0.204274,0.345551 -0.267269,0.53454 -0.02817,0.08452 0,0.178178 0,0.267269 0,0.08909 0,0.178181 0,0.267269 0,0.356359 0,0.712718 0,1.069078 0,0.356359 0,0.712718 0,1.069078 0,0.267271 0,0.53454 0,0.801809 0,0.08909 -0.02817,0.18275 0,0.267269 0.290817,0.872448 0.349155,0.224036 0.534538,1.336349 0.04394,0.263631 -0.05241,0.539729 0,0.801807 0.03907,0.195344 0.204274,0.345551 0.267271,0.53454 0.02817,0.08452 0,0.178179 0,0.267269 0,0.178181 -0.05635,0.365503 0,0.53454 0.03984,0.119526 0.227426,0.147741 0.267269,0.267269 0.05635,0.169037 -0.04321,0.36168 0,0.534538 0.04832,0.193265 0.204274,0.345551 0.267269,0.53454 0.05331,0.159938 -0.05331,0.641872 0,0.80181 0.063,0.188986 0.204274,0.345551 0.267269,0.534537 0.02817,0.08452 0,0.178181 0,0.267269 0,0.08909 0,0.178181 0,0.267272 0,0.267268 0,0.534537 0,0.801806 0,0.08909 0,0.178181 0,0.267272 0,0.08909 -0.03984,0.187584 0,0.267269 0.05635,0.112691 0.210926,0.154577 0.267271,0.267268 0.01926,0.03855 0,0.716399 0,0.80181 0,0.04069 0.02689,0.961506 0,1.069078 -0.06833,0.273314 -0.19894,0.528494 -0.267271,0.801809 -0.02689,0.107571 0,1.028385 0,1.069078 0,0.08909 -0.02817,0.18275 0,0.267269 0.063,0.188989 0.204274,0.345551 0.267271,0.53454 0.02817,0.08452 -0.03984,0.187584 0,0.267269 0.31972,0.63944 0.214818,-0.104902 0.534538,0.534538 0.03984,0.07968 -0.03984,0.187587 0,0.267271 0.05635,0.112689 0.178181,0.178178 0.267269,0.267269 0.08909,0.08909 0.15458,0.210923 0.267271,0.267269 0.484852,0.242427 1.731529,0.483711 2.138157,0.53454 0.265205,0.03315 0.536601,-0.03315 0.801809,0 0.450762,0.05634 0.885584,0.210923 1.336347,0.267269 0.53041,0.0663 1.076351,-0.08788 1.603615,0 0.277895,0.04632 0.525553,0.212019 0.80181,0.267269 0.17472,0.03494 0.356359,0 0.53454,0 0.178178,0 0.356359,0 0.534538,0 0.08909,0 0.178181,0 0.267269,0 0.08909,0 0.182753,0.02817 0.267271,0 1.04086,-0.346954 0.025,-0.267269 1.069078,-0.267269 0.890897,0 1.781797,0 2.672694,0 0.267269,0 0.53454,0 0.801809,0 0.267269,0 0.538176,0.04394 0.801809,0 0.277892,-0.04631 0.523915,-0.220954 0.801807,-0.267269 0.263633,-0.04394 0.538176,0.04394 0.801809,0 0.277895,-0.04632 0.522915,-0.227428 0.801809,-0.267271 0.352777,-0.0504 0.716301,0.0504 1.069078,0 0.278895,-0.03984 0.525553,-0.212019 0.801809,-0.267269 0.174721,-0.03494 0.35636,0 0.534538,0 0.238424,0 1.492912,0.02214 1.603619,0 0.195341,-0.03907 0.345551,-0.204274 0.534537,-0.267269 0.07367,-0.02455 0.688401,0 0.801809,0 0.08909,0 0.178181,0 0.267269,0 0.178181,0 0.365504,-0.05635 0.534541,0 0.119525,0.03984 0.178178,0.178178 0.267269,0.267269 0.178181,0.08909 0.339195,0.2282 0.53454,0.267269 0.262078,0.05242 0.537223,-0.0378 0.801806,0 0.727271,0.103896 1.407996,0.453411 2.138157,0.53454 3.621722,0 0.005,-0.199213 1.870887,0.267269 0.353621,0.08841 0.982728,-0.0884 1.336347,0 0.193265,0.04832 0.341278,0.218953 0.53454,0.267269 0.17286,0.04322 0.356359,0 0.53454,0 0.178179,0 0.35636,0 0.534538,0 0.979988,0 1.959978,0 2.939965,0 0.534538,0 1.069078,0 1.603616,0 0.178181,0 0.356359,0 0.53454,0 0.178179,0 0.365504,0.05635 0.534538,0 0.119528,-0.03984 0.147743,-0.227426 0.267272,-0.267269 0.338071,-0.112691 0.731004,0.112691 1.069078,0 0.119525,-0.03984 0.14774,-0.227428 0.267269,-0.267269 0.169037,-0.05635 0.365503,0.05635 0.534537,0 1.179785,-0.393261 -0.971034,-0.267269 0.801809,-0.267269 1.158169,0 2.316335,0 3.474505,0 0.26727,0 0.53454,0 0.80181,0 0.26727,0 0.53722,-0.0378 0.80181,0 0.36363,0.05195 0.70399,0.226703 1.06907,0.267269 0.44273,0.04919 0.89311,-0.04433 1.33635,0 0.45202,0.0452 0.88486,0.217104 1.33635,0.267269 0.35418,0.03935 0.71272,0 1.06908,0 0.26727,0 0.53454,0 0.80181,0 0.26727,0 0.53454,0 0.80181,0 0.0891,0 0.17818,0 0.26726,0 0.0891,0 0.18759,0.03984 0.26728,0 0.11268,-0.05635 0.17817,-0.178178 0.26726,-0.267269 0.0891,-0.08909 0.17818,-0.178181 0.26727,-0.267269 0.76168,-0.761674 0.39477,-0.324876 1.06908,-1.336349 1.02726,-1.540881 0.13788,-0.05446 0.80181,-1.603616 0.15695,-0.366207 0.39464,-0.696024 0.53454,-1.069078 0.26606,-0.709486 0.40257,-2.012858 0.53454,-2.672697 0.1678,-0.838996 0.27981,-1.106688 0.53454,-1.870887 0.19038,-0.571151 0.45064,-1.283589 0.53454,-1.870884 0.0378,-0.264584 0,-0.534541 0,-0.80181 0.0891,-0.267269 0.22095,-0.523914 0.26727,-0.801809 0.0439,-0.263633 0,-0.534538 0,-0.801809 0,-0.267269 0,-0.534538 0,-0.801807 0,-0.267271 -0.0439,-0.538175 0,-0.801809 0.0463,-0.277894 0.22742,-0.522914 0.26726,-0.801809 0.0504,-0.352777 0,-0.712719 0,-1.069078 0,-0.267269 0.0332,-0.536604 0,-0.801809 -0.0563,-0.450763 -0.21092,-0.885584 -0.26726,-1.336347 -0.0332,-0.265205 0.0524,-0.539729 0,-0.801809 -0.0391,-0.195342 -0.22821,-0.339196 -0.26727,-0.534538 -0.10484,-0.524158 0.0756,-1.074452 0,-1.603618 -0.3321,-2.324643 -0.26727,0.02315 -0.26727,-1.870888 0,-1.158166 0,-2.316334 0,-3.474503 0,-0.267269 0,-0.534537 0,-0.801809 0,-0.445447 -0.0553,-0.894337 0,-1.336347 0.0349,-0.279551 0.22095,-0.523914 0.26727,-0.801809 0.0439,-0.263633 0,-0.534538 0,-0.801807 0,-0.801809 0,-1.603618 0,-2.405427 0,-0.623628 0,-1.247257 0,-1.870887 0,-0.267269 0.0439,-0.538173 0,-0.801807 -0.0463,-0.277894 -0.21202,-0.525552 -0.26727,-0.801809 -0.0823,-0.411565 0.0823,-0.924785 0,-1.336347 -0.0391,-0.195345 -0.23452,-0.33804 -0.26727,-0.53454 -0.0586,-0.35151 0,-0.712719 0,-1.069078 0,-0.178179 0,-0.35636 0,-0.534538 0,-0.178181 0.0432,-0.36168 0,-0.53454 -0.0483,-0.193263 -0.21896,-0.341276 -0.26727,-0.534538 -0.0432,-0.17286 0,-0.35636 0,-0.534541 0,-0.178178 0,-0.356359 0,-0.534537 0,-0.08909 0.0398,-0.187587 0,-0.267272 -0.11269,-0.22538 -0.42185,-0.309157 -0.53454,-0.534537 -0.32914,-0.658273 0.77581,0.241273 -0.26727,-0.80181 -0.14086,-0.140864 -0.36879,-0.156768 -0.53454,-0.267268 -0.10483,-0.06989 -0.17818,-0.178181 -0.26727,-0.267269 -0.0891,-0.08909 -0.17818,-0.178181 -0.26727,-0.267272 -0.0891,-0.08909 -0.16244,-0.197382 -0.26727,-0.267269 -0.16575,-0.110503 -0.36878,-0.156768 -0.53454,-0.267269 -0.20966,-0.139776 -0.30915,-0.421849 -0.53454,-0.53454 -0.15937,-0.07968 -0.37517,0.07968 -0.53453,0 -0.1127,-0.05635 -0.15458,-0.210923 -0.26728,-0.267269 -0.15937,-0.07968 -0.3655,0.05635 -0.53453,0 -0.18899,-0.06299 -0.3392,-0.2282 -0.53454,-0.267269 -0.26208,-0.05242 -0.53454,0 -0.80181,0 -0.53454,0 -1.06908,0 -1.60362,0 -1.33635,0 -2.67269,0 -4.00904,0 -0.26727,0 -0.53454,0 -0.80181,0 -0.26727,0 -0.53617,-0.02951 -0.80181,0 -2.93269,0.325853 -0.41886,0.267269 -2.672695,0.267269 -2.049065,0 -4.098131,0 -6.147199,0 -0.534538,0 -1.069078,0 -1.603616,0 -0.356359,0 -0.71547,-0.0442 -1.069078,0 -0.36449,0.04556 -0.706749,0.206881 -1.069078,0.267269 -0.175755,0.02929 -0.356359,0 -0.53454,0 -0.178179,0 -0.35636,0 -0.534538,0 -0.623631,0 -1.247259,0 -1.870887,0 -0.267269,0 -0.538176,-0.04394 -0.801809,0 -0.277892,0.04631 -0.522912,0.227428 -0.80181,0.267272 -0.352776,0.0504 -0.712718,0 -1.069078,0 -0.534537,0 -1.069078,0 -1.603615,0 -0.178181,0 -0.35636,0 -0.534541,0 -0.178178,0 -0.3655,-0.05635 -0.534537,0 -0.119529,0.03984 -0.147744,0.227425 -0.267269,0.267268 -0.169037,0.05635 -0.35636,0 -0.534541,0 -0.178178,0 -0.356359,0 -0.534537,0 -0.267272,0 -0.538176,-0.04394 -0.801809,0 -0.277895,0.04632 -0.523915,0.220954 -0.80181,0.267269 -0.263633,0.04394 -0.534537,0 -0.801809,0 -0.267269,0 -0.534538,0 -0.801806,0 -0.979991,0 -1.959978,0 -2.939966,0 -0.356359,0 -0.712718,0 -1.069078,0 -0.356359,0 -0.71547,-0.0442 -1.069078,0 -0.36449,0.04556 -0.708885,0.195231 -1.069078,0.267269 -0.08736,0.01746 -0.178181,0 -0.267271,0 -0.08909,0 -0.178179,0 -0.267269,0 -0.35636,0 -0.712719,0 -1.069078,0 -0.08909,0 -0.182751,-0.02817 -0.267269,0 -0.188989,0.063 -0.341276,0.218953 -0.53454,0.267272 -0.07087,0.01773 -1.234943,0 -1.336347,0 -1.069078,0 -2.138156,0 -3.207235,0"
       id="path10682"
       inkscape:connector-curvature="0" />
    <path
       inkscape:connector-curvature="0"
       id="path10723"
       d="m 95.356127,39.988774 c -0.623628,-0.08909 -1.243513,-0.210235 -1.870887,-0.267269 -0.354894,-0.03226 -0.712719,0 -1.069078,0 -0.712719,0 -1.425438,0 -2.138156,0 -0.534538,0 -1.069079,0 -1.603616,0 -0.08909,0 -0.182753,-0.02817 -0.267269,0 -0.188989,0.063 -0.368787,0.156766 -0.53454,0.267269 -0.104831,0.06989 -0.147744,0.227428 -0.267269,0.267269 -0.169037,0.05635 -0.36168,-0.04321 -0.534541,0 -0.646935,0.161734 -0.536588,0.402444 -1.069078,0.801809 -0.159366,0.119528 -0.375168,0.147743 -0.534537,0.267269 -0.201589,0.151191 -0.35636,0.356359 -0.534541,0.53454 -0.178178,0.178179 -0.383347,0.332952 -0.534537,0.534538 -0.119529,0.159369 -0.147744,0.375171 -0.267269,0.53454 -0.151191,0.201586 -0.35636,0.35636 -0.534541,0.534538 -0.178178,0.178181 -0.356359,0.356359 -0.534537,0.53454 -0.178181,0.178179 -0.38335,0.332952 -0.534541,0.534538 -0.585364,0.780487 0.133411,0.367665 -0.801809,1.069078 -0.159369,0.119528 -0.375168,0.147744 -0.534538,0.267272 -0.201588,0.151191 -0.356359,0.356359 -0.53454,0.534537 -0.267269,0.267272 -0.575022,0.499428 -0.801806,0.80181 -0.119529,0.159369 -0.178181,0.356359 -0.267272,0.53454 -0.08909,0.178178 -0.204272,0.345548 -0.267269,0.534538 -0.02817,0.08452 0,0.178181 0,0.267268 0,0.08909 0,0.178181 0,0.267272 0,0.267269 0,0.534538 0,0.801807 0,0.267271 0,0.53454 0,0.801809 0,0.178181 -0.04321,0.36168 0,0.53454 0.04832,0.193262 0.204274,0.345551 0.267269,0.534538 0.02817,0.08452 -0.02817,0.182753 0,0.267269 0.063,0.188989 0.218953,0.341278 0.267272,0.53454 0.04321,0.17286 -0.04322,0.36168 0,0.534538 0.04832,0.193265 0.204271,0.345551 0.267268,0.53454 0.631169,1.893512 -0.06815,0.39823 0.534538,1.603616 0.08909,0.178181 0.126407,0.393676 0.267272,0.53454 0.140861,0.140864 0.393673,0.126405 0.534537,0.267269 0.0273,0.0273 0.494612,1.015841 0.534541,1.069078 0.151188,0.201589 0.356359,0.356359 0.534537,0.53454 0.08909,0.08909 0.162439,0.197382 0.267269,0.267269 0.165754,0.110503 0.375171,0.147744 0.534541,0.267269 0.201586,0.151191 0.332951,0.38335 0.534537,0.53454 0.159369,0.119526 0.363718,0.164775 0.534541,0.267269 0.381211,0.228727 0.878141,0.649073 1.336346,0.801809 1.520598,0.506865 0.583928,0.01976 1.870888,0.534538 0.712718,0.285089 0.449926,0.357256 1.336347,0.534541 0.17472,0.03494 0.35982,-0.03494 0.53454,0 0.276254,0.05525 0.523915,0.220953 0.801807,0.267268 0.263633,0.04394 0.538175,-0.04394 0.801809,0 0.277894,0.04632 0.523914,0.220954 0.801809,0.267269 0.263633,0.04394 0.534538,0 0.801809,0 0.178178,0 0.356359,0 0.534538,0 0.712719,0 1.425437,0 2.138156,0 0.356359,0 0.712719,0 1.069078,0 0.178181,0 0.35982,0.03494 0.53454,0 1.580613,-0.316121 0.02687,-0.171111 1.603616,-0.801809 0.165436,-0.06617 0.365503,0.05635 0.53454,0 0.119526,-0.03984 0.162439,-0.197379 0.267269,-0.267269 0.165754,-0.1105 0.368787,-0.156765 0.534541,-0.267269 0.209659,-0.139776 0.324869,-0.394763 0.534539,-0.53454 0.16575,-0.110501 0.36879,-0.156766 0.53454,-0.267269 0.10483,-0.06989 0.16244,-0.197382 0.26727,-0.267269 0.16576,-0.110503 0.37518,-0.147743 0.53454,-0.267269 0.30239,-0.226787 0.53455,-0.53454 0.80182,-0.801809 0.44545,-0.44545 0.8909,-0.890899 1.33635,-1.336347 0.26727,-0.267271 0.53455,-0.53454 0.80181,-0.801809 0.0891,-0.08909 0.21093,-0.15458 0.26728,-0.267269 0.0398,-0.07968 -0.0398,-0.187587 0,-0.267271 0.0476,-0.09518 0.48695,-0.439362 0.53454,-0.534538 0.12599,-0.251984 0.16264,-0.540231 0.26727,-0.801809 0.074,-0.184962 0.21895,-0.341276 0.26727,-0.534538 0.0432,-0.17286 -0.0432,-0.36168 0,-0.53454 0.0966,-0.386525 0.43791,-0.682551 0.53454,-1.069078 0.0432,-0.17286 0,-0.35636 0,-0.534538 0,-0.356359 0,-0.712719 0,-1.069078 0,-0.53454 0,-1.069078 0,-1.603618 0,-0.178179 0.0563,-0.365504 0,-0.534538 -0.0398,-0.119528 -0.22743,-0.147743 -0.26727,-0.267272 0,-1.216686 0.12599,-0.01529 -0.26727,-0.801806 -0.0398,-0.07969 0,-0.178181 0,-0.267272 0,-0.178178 0.0563,-0.365503 0,-0.534537 -0.0398,-0.119528 -0.19738,-0.162439 -0.26727,-0.267272 -0.1105,-0.165753 -0.15677,-0.368784 -0.26727,-0.534538 -0.13978,-0.209663 -0.39477,-0.324876 -0.53454,-0.53454 -0.1105,-0.165753 -0.12641,-0.393673 -0.26728,-0.534538 -0.14086,-0.140864 -0.39367,-0.126407 -0.53454,-0.267268 -0.14086,-0.140865 -0.1264,-0.393677 -0.26727,-0.534541 -0.14086,-0.140864 -0.39367,-0.126404 -0.53454,-0.267269 -0.14086,-0.140864 -0.12641,-0.393676 -0.26727,-0.53454 -0.063,-0.063 -0.20427,0.063 -0.26727,0 -0.063,-0.063 0.063,-0.204272 0,-0.267269 -0.063,-0.06299 -0.20428,0.063 -0.26727,0 -0.063,-0.06299 0.063,-0.204274 0,-0.267269 -0.063,-0.063 -0.18759,0.03984 -0.26727,0 -0.22539,-0.112691 -0.30916,-0.421849 -0.53455,-0.53454 -0.0797,-0.03984 -0.18758,0.03984 -0.26727,0 -0.22538,-0.112689 -0.30916,-0.421846 -0.53454,-0.534538 -0.0797,-0.03984 -0.17818,0 -0.26727,0 -0.0891,-0.08909 -0.15458,-0.210923 -0.26727,-0.267269 -0.0797,-0.03984 -0.20428,0.063 -0.26727,0 -0.063,-0.063 0.063,-0.204274 0,-0.267271 -0.063,-0.06299 -0.187585,0.03984 -0.267269,0 -0.112692,-0.05634 -0.154581,-0.210923 -0.267272,-0.267269 -0.03855,-0.01926 -0.716399,0 -0.801806,0"
       style="color:#000000;clip-rule:nonzero;display:inline;overflow:visible;visibility:visible;opacity:1;isolation:auto;mix-blend-mode:normal;color-interpolation:sRGB;color-interpolation-filters:linearRGB;solid-color:#000000;solid-opacity:1;vector-effect:none;fill:none;fill-opacity:1;fill-rule:evenodd;stroke:#80b3ff;stroke-width:1.28199995;stroke-linecap:butt;stroke-linejoin:miter;stroke-miterlimit:4;stroke-dasharray:none;stroke-dashoffset:0;stroke-opacity:1;color-rendering:auto;image-rendering:auto;shape-rendering:auto;text-rendering:auto;enable-background:accumulate" />
    <ellipse
       id="ellipse11001"
       style="color:#000000;clip-rule:nonzero;display:inline;overflow:visible;visibility:visible;opacity:1;isolation:auto;mix-blend-mode:normal;color-interpolation:sRGB;color-interpolation-filters:linearRGB;solid-color:#000000;solid-opacity:1;vector-effect:none;fill:none;fill-opacity:1;fill-rule:evenodd;stroke:#550000;stroke-width:0.382;stroke-linecap:butt;stroke-linejoin:miter;stroke-miterlimit:4;stroke-dasharray:none;stroke-dashoffset:0;stroke-opacity:1;color-rendering:auto;image-rendering:auto;shape-rendering:auto;text-rendering:auto;enable-background:accumulate"
       transform="rotate(-11.09)"
       rx="13.890302"
       ry="10.590079"
       cy="68.601761"
       cx="82.358566" />
    <rect
       width="47.958611"
       height="47.958611"
       x="-109.96515"
       y="-83.569016"
       transform="scale(-1)"
       style="color:#000000;clip-rule:nonzero;display:inline;overflow:visible;visibility:visible;opacity:1;isolation:auto;mix-blend-mode:normal;color-interpolation:sRGB;color-interpolation-filters:linearRGB;solid-color:#000000;solid-opacity:1;vector-effect:none;fill:none;fill-opacity:1;fill-rule:evenodd;stroke:#550000;stroke-width:0.382;stroke-linecap:butt;stroke-linejoin:miter;stroke-miterlimit:4;stroke-dasharray:none;stroke-dashoffset:0;stroke-opacity:1;color-rendering:auto;image-rendering:auto;shape-rendering:auto;text-rendering:auto;enable-background:accumulate"
       id="rect10714" />
  </g>
</svg>
